<?xml version="1.0" encoding="UTF-8" standalone="no"?>
<!DOCTYPE svg PUBLIC "-//W3C//DTD SVG 1.1//EN"
 "http://www.w3.org/Graphics/SVG/1.1/DTD/svg11.dtd">
<!-- Generated by graphviz version 9.0.0 (0)
 -->
<!-- Pages: 1 -->
<svg width="1002pt" height="1410pt"
 viewBox="0.00 0.00 1001.84 1409.79" xmlns="http://www.w3.org/2000/svg" xmlns:xlink="http://www.w3.org/1999/xlink">
<g id="graph0" class="graph" transform="scale(1 1) rotate(0) translate(4 1405.79)">
<polygon fill="white" stroke="none" points="-4,4 -4,-1405.79 997.84,-1405.79 997.84,4 -4,4"/>
<!-- 1 -->
<g id="node1" class="node">
<title>1</title>
<ellipse fill="none" stroke="black" cx="156.03" cy="-28.99" rx="27" ry="28.99"/>
<text text-anchor="middle" x="156.03" y="-32.19" font-family="Times,serif" font-size="14.00">1;0</text>
<text text-anchor="middle" x="156.03" y="-15.69" font-family="Times,serif" font-size="14.00">1</text>
</g>
<!-- 1282 -->
<g id="node2" class="node">
<title>1282</title>
<ellipse fill="none" stroke="black" cx="235.4" cy="-164.39" rx="30.41" ry="28.99"/>
<text text-anchor="middle" x="235.4" y="-167.59" font-family="Times,serif" font-size="14.00">13;9</text>
<text text-anchor="middle" x="235.4" y="-151.09" font-family="Times,serif" font-size="14.00">1282</text>
</g>
<!-- 1&#45;&#45;1282 -->
<g id="edge1" class="edge">
<title>1&#45;&#45;1282</title>
<path fill="none" stroke="black" d="M170.59,-53.83C184.73,-77.95 206.11,-114.41 220.4,-138.79"/>
<text text-anchor="middle" x="185.37" y="-99.51" font-family="Times,serif" font-size="14.00">101</text>
</g>
<!-- 6078 -->
<g id="node3" class="node">
<title>6078</title>
<ellipse fill="none" stroke="black" cx="174.32" cy="-323.15" rx="33.06" ry="28.99"/>
<text text-anchor="middle" x="174.32" y="-326.35" font-family="Times,serif" font-size="14.00">15;43</text>
<text text-anchor="middle" x="174.32" y="-309.85" font-family="Times,serif" font-size="14.00">6078</text>
</g>
<!-- 1282&#45;&#45;6078 -->
<g id="edge2" class="edge">
<title>1282&#45;&#45;6078</title>
<path fill="none" stroke="black" d="M224.76,-192.04C213.62,-221 196.22,-266.24 185.04,-295.28"/>
<text text-anchor="middle" x="194.78" y="-246.86" font-family="Times,serif" font-size="14.00">280</text>
</g>
<!-- 8610 -->
<g id="node7" class="node">
<title>8610</title>
<ellipse fill="none" stroke="black" cx="117.89" cy="-487.64" rx="30.41" ry="28.99"/>
<text text-anchor="middle" x="117.89" y="-490.84" font-family="Times,serif" font-size="14.00">9;61</text>
<text text-anchor="middle" x="117.89" y="-474.34" font-family="Times,serif" font-size="14.00">8610</text>
</g>
<!-- 6078&#45;&#45;8610 -->
<g id="edge6" class="edge">
<title>6078&#45;&#45;8610</title>
<path fill="none" stroke="black" d="M164.75,-351.05C154.34,-381.39 137.8,-429.59 127.41,-459.87"/>
<text text-anchor="middle" x="135.96" y="-408.66" font-family="Times,serif" font-size="14.00">184</text>
</g>
<!-- 734 -->
<g id="node4" class="node">
<title>734</title>
<ellipse fill="none" stroke="black" cx="397.75" cy="-213.07" rx="28.28" ry="28.99"/>
<text text-anchor="middle" x="397.75" y="-216.27" font-family="Times,serif" font-size="14.00">29;5</text>
<text text-anchor="middle" x="397.75" y="-199.77" font-family="Times,serif" font-size="14.00">734</text>
</g>
<!-- 734&#45;&#45;1282 -->
<g id="edge3" class="edge">
<title>734&#45;&#45;1282</title>
<path fill="none" stroke="black" d="M370.21,-204.81C340.9,-196.02 294.7,-182.17 264.73,-173.18"/>
<text text-anchor="middle" x="307.34" y="-192.2" font-family="Times,serif" font-size="14.00">100</text>
</g>
<!-- 1044 -->
<g id="node5" class="node">
<title>1044</title>
<ellipse fill="none" stroke="black" cx="562.23" cy="-270.72" rx="30.41" ry="28.99"/>
<text text-anchor="middle" x="562.23" y="-273.92" font-family="Times,serif" font-size="14.00">57;7</text>
<text text-anchor="middle" x="562.23" y="-257.42" font-family="Times,serif" font-size="14.00">1044</text>
</g>
<!-- 734&#45;&#45;1044 -->
<g id="edge4" class="edge">
<title>734&#45;&#45;1044</title>
<path fill="none" stroke="black" d="M424.91,-222.59C454.84,-233.08 502.78,-249.88 533.37,-260.6"/>
<text text-anchor="middle" x="469.02" y="-244.8" font-family="Times,serif" font-size="14.00">194</text>
</g>
<!-- 5812 -->
<g id="node6" class="node">
<title>5812</title>
<ellipse fill="none" stroke="black" cx="335.81" cy="-369.23" rx="33.06" ry="28.99"/>
<text text-anchor="middle" x="335.81" y="-372.43" font-family="Times,serif" font-size="14.00">31;41</text>
<text text-anchor="middle" x="335.81" y="-355.93" font-family="Times,serif" font-size="14.00">5812</text>
</g>
<!-- 734&#45;&#45;5812 -->
<g id="edge5" class="edge">
<title>734&#45;&#45;5812</title>
<path fill="none" stroke="black" d="M386.96,-240.27C375.7,-268.67 358.12,-312.97 346.79,-341.55"/>
<text text-anchor="middle" x="356.75" y="-294.11" font-family="Times,serif" font-size="14.00">174</text>
</g>
<!-- 1916 -->
<g id="node8" class="node">
<title>1916</title>
<ellipse fill="none" stroke="black" cx="726.24" cy="-337.06" rx="33.06" ry="28.99"/>
<text text-anchor="middle" x="726.24" y="-340.26" font-family="Times,serif" font-size="14.00">83;13</text>
<text text-anchor="middle" x="726.24" y="-323.76" font-family="Times,serif" font-size="14.00">1916</text>
</g>
<!-- 1044&#45;&#45;1916 -->
<g id="edge7" class="edge">
<title>1044&#45;&#45;1916</title>
<path fill="none" stroke="black" d="M590.42,-282.12C619.82,-294.02 665.74,-312.59 695.91,-324.8"/>
<text text-anchor="middle" x="633.04" y="-306.66" font-family="Times,serif" font-size="14.00">172</text>
</g>
<!-- 4720 -->
<g id="node9" class="node">
<title>4720</title>
<ellipse fill="none" stroke="black" cx="498.07" cy="-423.99" rx="33.06" ry="28.99"/>
<text text-anchor="middle" x="498.07" y="-427.19" font-family="Times,serif" font-size="14.00">67;33</text>
<text text-anchor="middle" x="498.07" y="-410.69" font-family="Times,serif" font-size="14.00">4720</text>
</g>
<!-- 1044&#45;&#45;4720 -->
<g id="edge8" class="edge">
<title>1044&#45;&#45;4720</title>
<path fill="none" stroke="black" d="M550.91,-297.77C539.29,-325.52 521.3,-368.49 509.6,-396.43"/>
<text text-anchor="middle" x="520.13" y="-350.3" font-family="Times,serif" font-size="14.00">152</text>
</g>
<!-- 5812&#45;&#45;6078 -->
<g id="edge9" class="edge">
<title>5812&#45;&#45;6078</title>
<path fill="none" stroke="black" d="M303.9,-360.12C275.59,-352.04 234.45,-340.3 206.16,-332.23"/>
<text text-anchor="middle" x="248.28" y="-349.38" font-family="Times,serif" font-size="14.00">62</text>
</g>
<!-- 9200 -->
<g id="node10" class="node">
<title>9200</title>
<ellipse fill="none" stroke="black" cx="278.49" cy="-530.88" rx="33.06" ry="28.99"/>
<text text-anchor="middle" x="278.49" y="-534.08" font-family="Times,serif" font-size="14.00">35;65</text>
<text text-anchor="middle" x="278.49" y="-517.58" font-family="Times,serif" font-size="14.00">9200</text>
</g>
<!-- 5812&#45;&#45;9200 -->
<g id="edge10" class="edge">
<title>5812&#45;&#45;9200</title>
<path fill="none" stroke="black" d="M325.95,-397.01C315.46,-426.62 298.93,-473.24 288.41,-502.91"/>
<text text-anchor="middle" x="297.06" y="-453.16" font-family="Times,serif" font-size="14.00">172</text>
</g>
<!-- 8610&#45;&#45;9200 -->
<g id="edge11" class="edge">
<title>8610&#45;&#45;9200</title>
<path fill="none" stroke="black" d="M147.34,-495.57C175.42,-503.13 217.57,-514.48 246.47,-522.26"/>
<text text-anchor="middle" x="186.78" y="-512.11" font-family="Times,serif" font-size="14.00">114</text>
</g>
<!-- 12568 -->
<g id="node11" class="node">
<title>12568</title>
<ellipse fill="none" stroke="black" cx="68.43" cy="-657.13" rx="35.18" ry="28.99"/>
<text text-anchor="middle" x="68.43" y="-660.33" font-family="Times,serif" font-size="14.00">19;89</text>
<text text-anchor="middle" x="68.43" y="-643.83" font-family="Times,serif" font-size="14.00">12568</text>
</g>
<!-- 8610&#45;&#45;12568 -->
<g id="edge12" class="edge">
<title>8610&#45;&#45;12568</title>
<path fill="none" stroke="black" d="M109.61,-516.01C100.48,-547.29 85.87,-597.35 76.73,-628.67"/>
<text text-anchor="middle" x="83.04" y="-575.54" font-family="Times,serif" font-size="14.00">230</text>
</g>
<!-- 4732 -->
<g id="node12" class="node">
<title>4732</title>
<ellipse fill="none" stroke="black" cx="658.1" cy="-482.86" rx="33.06" ry="28.99"/>
<text text-anchor="middle" x="658.1" y="-486.06" font-family="Times,serif" font-size="14.00">79;33</text>
<text text-anchor="middle" x="658.1" y="-469.56" font-family="Times,serif" font-size="14.00">4732</text>
</g>
<!-- 1916&#45;&#45;4732 -->
<g id="edge13" class="edge">
<title>1916&#45;&#45;4732</title>
<path fill="none" stroke="black" d="M713.58,-364.14C701.35,-390.33 682.91,-429.78 670.69,-455.92"/>
<text text-anchor="middle" x="682.01" y="-413.23" font-family="Times,serif" font-size="14.00">108</text>
</g>
<!-- 4720&#45;&#45;5812 -->
<g id="edge14" class="edge">
<title>4720&#45;&#45;5812</title>
<path fill="none" stroke="black" d="M466.78,-413.43C438.05,-403.73 395.7,-389.44 367,-379.75"/>
<text text-anchor="middle" x="406.77" y="-399.79" font-family="Times,serif" font-size="14.00">232</text>
</g>
<!-- 4720&#45;&#45;4732 -->
<g id="edge15" class="edge">
<title>4720&#45;&#45;4732</title>
<path fill="none" stroke="black" d="M528.93,-435.34C557.26,-445.76 599.03,-461.13 627.34,-471.54"/>
<text text-anchor="middle" x="571.38" y="-456.64" font-family="Times,serif" font-size="14.00">48</text>
</g>
<!-- 8380 -->
<g id="node13" class="node">
<title>8380</title>
<ellipse fill="none" stroke="black" cx="441.81" cy="-587.66" rx="33.06" ry="28.99"/>
<text text-anchor="middle" x="441.81" y="-590.86" font-family="Times,serif" font-size="14.00">61;59</text>
<text text-anchor="middle" x="441.81" y="-574.36" font-family="Times,serif" font-size="14.00">8380</text>
</g>
<!-- 4720&#45;&#45;8380 -->
<g id="edge16" class="edge">
<title>4720&#45;&#45;8380</title>
<path fill="none" stroke="black" d="M488.4,-452.12C478.06,-482.19 461.77,-529.58 451.45,-559.61"/>
<text text-anchor="middle" x="459.8" y="-509.07" font-family="Times,serif" font-size="14.00">180</text>
</g>
<!-- 12302 -->
<g id="node14" class="node">
<title>12302</title>
<ellipse fill="none" stroke="black" cx="225.43" cy="-693.04" rx="35.18" ry="28.99"/>
<text text-anchor="middle" x="225.43" y="-696.24" font-family="Times,serif" font-size="14.00">35;87</text>
<text text-anchor="middle" x="225.43" y="-679.74" font-family="Times,serif" font-size="14.00">12302</text>
</g>
<!-- 9200&#45;&#45;12302 -->
<g id="edge17" class="edge">
<title>9200&#45;&#45;12302</title>
<path fill="none" stroke="black" d="M269.25,-559.13C259.57,-588.71 244.45,-634.91 234.74,-664.58"/>
<text text-anchor="middle" x="241.87" y="-615.05" font-family="Times,serif" font-size="14.00">110</text>
</g>
<!-- 14246 -->
<g id="node15" class="node">
<title>14246</title>
<ellipse fill="none" stroke="black" cx="35.18" cy="-832.4" rx="35.18" ry="28.99"/>
<text text-anchor="middle" x="35.18" y="-835.6" font-family="Times,serif" font-size="14.00">5;101</text>
<text text-anchor="middle" x="35.18" y="-819.1" font-family="Times,serif" font-size="14.00">14246</text>
</g>
<!-- 12568&#45;&#45;14246 -->
<g id="edge18" class="edge">
<title>12568&#45;&#45;14246</title>
<path fill="none" stroke="black" d="M62.94,-686.07C56.78,-718.55 46.84,-770.92 40.68,-803.41"/>
<text text-anchor="middle" x="41.68" y="-747.94" font-family="Times,serif" font-size="14.00">194</text>
</g>
<!-- 5322 -->
<g id="node18" class="node">
<title>5322</title>
<ellipse fill="none" stroke="black" cx="813.97" cy="-544.86" rx="37.83" ry="28.99"/>
<text text-anchor="middle" x="813.97" y="-548.06" font-family="Times,serif" font-size="14.00">105;37</text>
<text text-anchor="middle" x="813.97" y="-531.56" font-family="Times,serif" font-size="14.00">5322</text>
</g>
<!-- 4732&#45;&#45;5322 -->
<g id="edge22" class="edge">
<title>4732&#45;&#45;5322</title>
<path fill="none" stroke="black" d="M688.53,-494.96C714.84,-505.43 752.83,-520.54 780.11,-531.39"/>
<text text-anchor="middle" x="724.19" y="-516.38" font-family="Times,serif" font-size="14.00">166</text>
</g>
<!-- 8126 -->
<g id="node19" class="node">
<title>8126</title>
<ellipse fill="none" stroke="black" cx="604.31" cy="-646.71" rx="33.06" ry="28.99"/>
<text text-anchor="middle" x="604.31" y="-649.91" font-family="Times,serif" font-size="14.00">89;57</text>
<text text-anchor="middle" x="604.31" y="-633.41" font-family="Times,serif" font-size="14.00">8126</text>
</g>
<!-- 4732&#45;&#45;8126 -->
<g id="edge23" class="edge">
<title>4732&#45;&#45;8126</title>
<path fill="none" stroke="black" d="M648.85,-511.03C638.97,-541.13 623.4,-588.57 613.53,-618.64"/>
<text text-anchor="middle" x="621.07" y="-568.03" font-family="Times,serif" font-size="14.00">154</text>
</g>
<!-- 8380&#45;&#45;9200 -->
<g id="edge24" class="edge">
<title>8380&#45;&#45;9200</title>
<path fill="none" stroke="black" d="M410.71,-576.84C381.65,-566.74 338.5,-551.74 309.48,-541.65"/>
<text text-anchor="middle" x="349.97" y="-562.45" font-family="Times,serif" font-size="14.00">156</text>
</g>
<!-- 11764 -->
<g id="node20" class="node">
<title>11764</title>
<ellipse fill="none" stroke="black" cx="387.36" cy="-751.96" rx="35.18" ry="28.99"/>
<text text-anchor="middle" x="387.36" y="-755.16" font-family="Times,serif" font-size="14.00">61;83</text>
<text text-anchor="middle" x="387.36" y="-738.66" font-family="Times,serif" font-size="14.00">11764</text>
</g>
<!-- 8380&#45;&#45;11764 -->
<g id="edge25" class="edge">
<title>8380&#45;&#45;11764</title>
<path fill="none" stroke="black" d="M432.45,-615.9C422.47,-645.99 406.77,-693.37 396.78,-723.53"/>
<text text-anchor="middle" x="404.49" y="-672.92" font-family="Times,serif" font-size="14.00">168</text>
</g>
<!-- 12302&#45;&#45;12568 -->
<g id="edge26" class="edge">
<title>12302&#45;&#45;12568</title>
<path fill="none" stroke="black" d="M191.36,-685.25C165.12,-679.25 128.99,-670.99 102.7,-664.97"/>
<text text-anchor="middle" x="140.28" y="-678.31" font-family="Times,serif" font-size="14.00">86</text>
</g>
<!-- 14848 -->
<g id="node21" class="node">
<title>14848</title>
<ellipse fill="none" stroke="black" cx="177.37" cy="-853.83" rx="37.83" ry="28.99"/>
<text text-anchor="middle" x="177.37" y="-857.03" font-family="Times,serif" font-size="14.00">43;105</text>
<text text-anchor="middle" x="177.37" y="-840.53" font-family="Times,serif" font-size="14.00">14848</text>
</g>
<!-- 12302&#45;&#45;14848 -->
<g id="edge27" class="edge">
<title>12302&#45;&#45;14848</title>
<path fill="none" stroke="black" d="M216.95,-721.42C208.22,-750.63 194.69,-795.9 185.93,-825.2"/>
<text text-anchor="middle" x="194.69" y="-776.51" font-family="Times,serif" font-size="14.00">94</text>
</g>
<!-- 14246&#45;&#45;14848 -->
<g id="edge28" class="edge">
<title>14246&#45;&#45;14848</title>
<path fill="none" stroke="black" d="M69.96,-837.64C91.18,-840.84 118.28,-844.92 139.96,-848.19"/>
<text text-anchor="middle" x="94.84" y="-846.12" font-family="Times,serif" font-size="14.00">182</text>
</g>
<!-- 17940 -->
<g id="node22" class="node">
<title>17940</title>
<ellipse fill="none" stroke="black" cx="106.28" cy="-978.86" rx="37.83" ry="28.99"/>
<text text-anchor="middle" x="106.28" y="-982.06" font-family="Times,serif" font-size="14.00">33;127</text>
<text text-anchor="middle" x="106.28" y="-965.56" font-family="Times,serif" font-size="14.00">17940</text>
</g>
<!-- 14246&#45;&#45;17940 -->
<g id="edge29" class="edge">
<title>14246&#45;&#45;17940</title>
<path fill="none" stroke="black" d="M48.39,-859.6C61.08,-885.74 80.15,-925.04 92.9,-951.3"/>
<text text-anchor="middle" x="60.52" y="-908.65" font-family="Times,serif" font-size="14.00">402</text>
</g>
<!-- 1650 -->
<g id="node16" class="node">
<title>1650</title>
<ellipse fill="none" stroke="black" cx="884.62" cy="-419.66" rx="33.06" ry="28.99"/>
<text text-anchor="middle" x="884.62" y="-422.86" font-family="Times,serif" font-size="14.00">99;11</text>
<text text-anchor="middle" x="884.62" y="-406.36" font-family="Times,serif" font-size="14.00">1650</text>
</g>
<!-- 1650&#45;&#45;1916 -->
<g id="edge19" class="edge">
<title>1650&#45;&#45;1916</title>
<path fill="none" stroke="black" d="M855.94,-404.7C827.32,-389.78 783.61,-366.98 754.98,-352.05"/>
<text text-anchor="middle" x="795.33" y="-381.57" font-family="Times,serif" font-size="14.00">102</text>
</g>
<!-- 5350 -->
<g id="node17" class="node">
<title>5350</title>
<ellipse fill="none" stroke="black" cx="956.01" cy="-566.24" rx="37.83" ry="28.99"/>
<text text-anchor="middle" x="956.01" y="-569.44" font-family="Times,serif" font-size="14.00">133;37</text>
<text text-anchor="middle" x="956.01" y="-552.94" font-family="Times,serif" font-size="14.00">5350</text>
</g>
<!-- 1650&#45;&#45;5350 -->
<g id="edge20" class="edge">
<title>1650&#45;&#45;5350</title>
<path fill="none" stroke="black" d="M897.71,-446.54C910.51,-472.82 929.9,-512.63 942.76,-539.03"/>
<text text-anchor="middle" x="910.11" y="-495.98" font-family="Times,serif" font-size="14.00">528</text>
</g>
<!-- 1650&#45;&#45;5322 -->
<g id="edge21" class="edge">
<title>1650&#45;&#45;5322</title>
<path fill="none" stroke="black" d="M869.81,-445.9C857.83,-467.13 841.04,-496.89 829,-518.22"/>
<text text-anchor="middle" x="839.28" y="-485.26" font-family="Times,serif" font-size="14.00">164</text>
</g>
<!-- 9006 -->
<g id="node23" class="node">
<title>9006</title>
<ellipse fill="none" stroke="black" cx="923.01" cy="-741.79" rx="37.83" ry="28.99"/>
<text text-anchor="middle" x="923.01" y="-744.99" font-family="Times,serif" font-size="14.00">123;63</text>
<text text-anchor="middle" x="923.01" y="-728.49" font-family="Times,serif" font-size="14.00">9006</text>
</g>
<!-- 5350&#45;&#45;9006 -->
<g id="edge30" class="edge">
<title>5350&#45;&#45;9006</title>
<path fill="none" stroke="black" d="M950.56,-595.23C944.45,-627.75 934.59,-680.21 928.47,-712.76"/>
<text text-anchor="middle" x="929.39" y="-657.19" font-family="Times,serif" font-size="14.00">240</text>
</g>
<!-- 5322&#45;&#45;5350 -->
<g id="edge31" class="edge">
<title>5322&#45;&#45;5350</title>
<path fill="none" stroke="black" d="M851.29,-550.48C872,-553.59 897.7,-557.46 918.45,-560.58"/>
<text text-anchor="middle" x="874.74" y="-558.73" font-family="Times,serif" font-size="14.00">112</text>
</g>
<!-- 8142 -->
<g id="node24" class="node">
<title>8142</title>
<ellipse fill="none" stroke="black" cx="766.21" cy="-705.77" rx="37.83" ry="28.99"/>
<text text-anchor="middle" x="766.21" y="-708.97" font-family="Times,serif" font-size="14.00">105;57</text>
<text text-anchor="middle" x="766.21" y="-692.47" font-family="Times,serif" font-size="14.00">8142</text>
</g>
<!-- 5322&#45;&#45;8142 -->
<g id="edge32" class="edge">
<title>5322&#45;&#45;8142</title>
<path fill="none" stroke="black" d="M805.54,-573.26C796.86,-602.49 783.42,-647.79 774.71,-677.12"/>
<text text-anchor="middle" x="780" y="-628.39" font-family="Times,serif" font-size="14.00">112</text>
</g>
<!-- 8126&#45;&#45;8380 -->
<g id="edge33" class="edge">
<title>8126&#45;&#45;8380</title>
<path fill="none" stroke="black" d="M573.36,-635.46C544.45,-624.95 501.52,-609.35 472.64,-598.86"/>
<text text-anchor="middle" x="512.88" y="-620.36" font-family="Times,serif" font-size="14.00">138</text>
</g>
<!-- 8126&#45;&#45;8142 -->
<g id="edge34" class="edge">
<title>8126&#45;&#45;8142</title>
<path fill="none" stroke="black" d="M635.14,-657.96C662.76,-668.03 703.2,-682.79 731.85,-693.24"/>
<text text-anchor="middle" x="673.37" y="-678.8" font-family="Times,serif" font-size="14.00">104</text>
</g>
<!-- 12624 -->
<g id="node25" class="node">
<title>12624</title>
<ellipse fill="none" stroke="black" cx="549.9" cy="-811.05" rx="35.18" ry="28.99"/>
<text text-anchor="middle" x="549.9" y="-814.25" font-family="Times,serif" font-size="14.00">75;89</text>
<text text-anchor="middle" x="549.9" y="-797.75" font-family="Times,serif" font-size="14.00">12624</text>
</g>
<!-- 8126&#45;&#45;12624 -->
<g id="edge35" class="edge">
<title>8126&#45;&#45;12624</title>
<path fill="none" stroke="black" d="M594.96,-674.96C584.99,-705.06 569.3,-752.44 559.32,-782.61"/>
<text text-anchor="middle" x="567.01" y="-731.99" font-family="Times,serif" font-size="14.00">194</text>
</g>
<!-- 11764&#45;&#45;12302 -->
<g id="edge36" class="edge">
<title>11764&#45;&#45;12302</title>
<path fill="none" stroke="black" d="M354.98,-740.18C326.83,-729.94 286.24,-715.17 258.03,-704.91"/>
<text text-anchor="middle" x="296.38" y="-725.74" font-family="Times,serif" font-size="14.00">130</text>
</g>
<!-- 11764&#45;&#45;12624 -->
<g id="edge37" class="edge">
<title>11764&#45;&#45;12624</title>
<path fill="none" stroke="black" d="M419.86,-763.77C448.21,-774.08 489.12,-788.95 517.46,-799.25"/>
<text text-anchor="middle" x="461.91" y="-784.71" font-family="Times,serif" font-size="14.00">76</text>
</g>
<!-- 14588 -->
<g id="node26" class="node">
<title>14588</title>
<ellipse fill="none" stroke="black" cx="333.29" cy="-915.73" rx="37.83" ry="28.99"/>
<text text-anchor="middle" x="333.29" y="-918.93" font-family="Times,serif" font-size="14.00">65;103</text>
<text text-anchor="middle" x="333.29" y="-902.43" font-family="Times,serif" font-size="14.00">14588</text>
</g>
<!-- 11764&#45;&#45;14588 -->
<g id="edge38" class="edge">
<title>11764&#45;&#45;14588</title>
<path fill="none" stroke="black" d="M378.06,-780.11C368.16,-810.11 352.57,-857.33 342.65,-887.39"/>
<text text-anchor="middle" x="353.6" y="-836.95" font-family="Times,serif" font-size="14.00">84</text>
</g>
<!-- 14848&#45;&#45;17940 -->
<g id="edge39" class="edge">
<title>14848&#45;&#45;17940</title>
<path fill="none" stroke="black" d="M162.12,-880.65C150.13,-901.75 133.49,-931 121.5,-952.08"/>
<text text-anchor="middle" x="131.69" y="-919.57" font-family="Times,serif" font-size="14.00">204</text>
</g>
<!-- 18250 -->
<g id="node27" class="node">
<title>18250</title>
<ellipse fill="none" stroke="black" cx="264.58" cy="-1061.35" rx="37.83" ry="28.99"/>
<text text-anchor="middle" x="264.58" y="-1064.55" font-family="Times,serif" font-size="14.00">61;129</text>
<text text-anchor="middle" x="264.58" y="-1048.05" font-family="Times,serif" font-size="14.00">18250</text>
</g>
<!-- 17940&#45;&#45;18250 -->
<g id="edge40" class="edge">
<title>17940&#45;&#45;18250</title>
<path fill="none" stroke="black" d="M137.93,-995.35C165.54,-1009.74 205.38,-1030.5 232.98,-1044.88"/>
<text text-anchor="middle" x="175.33" y="-1023.32" font-family="Times,serif" font-size="14.00">266</text>
</g>
<!-- 11832 -->
<g id="node28" class="node">
<title>11832</title>
<ellipse fill="none" stroke="black" cx="873.52" cy="-911.55" rx="37.83" ry="28.99"/>
<text text-anchor="middle" x="873.52" y="-914.75" font-family="Times,serif" font-size="14.00">129;83</text>
<text text-anchor="middle" x="873.52" y="-898.25" font-family="Times,serif" font-size="14.00">11832</text>
</g>
<!-- 9006&#45;&#45;11832 -->
<g id="edge41" class="edge">
<title>9006&#45;&#45;11832</title>
<path fill="none" stroke="black" d="M914.73,-770.21C905.59,-801.54 890.98,-851.67 881.83,-883.05"/>
<text text-anchor="middle" x="888.15" y="-829.83" font-family="Times,serif" font-size="14.00">206</text>
</g>
<!-- 8142&#45;&#45;9006 -->
<g id="edge42" class="edge">
<title>8142&#45;&#45;9006</title>
<path fill="none" stroke="black" d="M802.58,-714.13C827.73,-719.9 861.07,-727.56 886.3,-733.36"/>
<text text-anchor="middle" x="837.69" y="-726.94" font-family="Times,serif" font-size="14.00">88</text>
</g>
<!-- 11252 -->
<g id="node29" class="node">
<title>11252</title>
<ellipse fill="none" stroke="black" cx="713.13" cy="-867.96" rx="37.83" ry="28.99"/>
<text text-anchor="middle" x="713.13" y="-871.16" font-family="Times,serif" font-size="14.00">113;79</text>
<text text-anchor="middle" x="713.13" y="-854.66" font-family="Times,serif" font-size="14.00">11252</text>
</g>
<!-- 8142&#45;&#45;11252 -->
<g id="edge43" class="edge">
<title>8142&#45;&#45;11252</title>
<path fill="none" stroke="black" d="M756.96,-734.02C747.28,-763.61 732.16,-809.82 722.45,-839.49"/>
<text text-anchor="middle" x="732.96" y="-789.95" font-family="Times,serif" font-size="14.00">78</text>
</g>
<!-- 14608 -->
<g id="node30" class="node">
<title>14608</title>
<ellipse fill="none" stroke="black" cx="493.3" cy="-974.58" rx="37.83" ry="28.99"/>
<text text-anchor="middle" x="493.3" y="-977.78" font-family="Times,serif" font-size="14.00">85;103</text>
<text text-anchor="middle" x="493.3" y="-961.28" font-family="Times,serif" font-size="14.00">14608</text>
</g>
<!-- 12624&#45;&#45;14608 -->
<g id="edge44" class="edge">
<title>12624&#45;&#45;14608</title>
<path fill="none" stroke="black" d="M540.17,-839.16C529.81,-869.11 513.49,-916.27 503.1,-946.29"/>
<text text-anchor="middle" x="514.89" y="-895.92" font-family="Times,serif" font-size="14.00">76</text>
</g>
<!-- 14588&#45;&#45;14848 -->
<g id="edge45" class="edge">
<title>14588&#45;&#45;14848</title>
<path fill="none" stroke="black" d="M299.46,-902.3C273.4,-891.95 237.52,-877.71 211.41,-867.34"/>
<text text-anchor="middle" x="248.69" y="-888.02" font-family="Times,serif" font-size="14.00">88</text>
</g>
<!-- 14588&#45;&#45;18250 -->
<g id="edge47" class="edge">
<title>14588&#45;&#45;18250</title>
<path fill="none" stroke="black" d="M320.37,-943.12C308.08,-969.15 289.71,-1008.09 277.44,-1034.08"/>
<text text-anchor="middle" x="288.78" y="-991.8" font-family="Times,serif" font-size="14.00">166</text>
</g>
<!-- 14588&#45;&#45;14608 -->
<g id="edge46" class="edge">
<title>14588&#45;&#45;14608</title>
<path fill="none" stroke="black" d="M367.62,-928.35C394.53,-938.25 431.8,-951.96 458.76,-961.88"/>
<text text-anchor="middle" x="406.44" y="-948.31" font-family="Times,serif" font-size="14.00">80</text>
</g>
<!-- 14660 -->
<g id="node31" class="node">
<title>14660</title>
<ellipse fill="none" stroke="black" cx="816.82" cy="-1076.21" rx="42.6" ry="28.99"/>
<text text-anchor="middle" x="816.82" y="-1079.41" font-family="Times,serif" font-size="14.00">137;103</text>
<text text-anchor="middle" x="816.82" y="-1062.91" font-family="Times,serif" font-size="14.00">14660</text>
</g>
<!-- 11832&#45;&#45;14660 -->
<g id="edge48" class="edge">
<title>11832&#45;&#45;14660</title>
<path fill="none" stroke="black" d="M863.77,-939.86C853.39,-970.02 837.04,-1017.49 826.63,-1047.72"/>
<text text-anchor="middle" x="835.08" y="-996.99" font-family="Times,serif" font-size="14.00">116</text>
</g>
<!-- 11252&#45;&#45;12624 -->
<g id="edge49" class="edge">
<title>11252&#45;&#45;12624</title>
<path fill="none" stroke="black" d="M678.52,-855.89C650.16,-846 610.32,-832.11 582.52,-822.42"/>
<text text-anchor="middle" x="620.4" y="-842.35" font-family="Times,serif" font-size="14.00">320</text>
</g>
<!-- 11252&#45;&#45;11832 -->
<g id="edge50" class="edge">
<title>11252&#45;&#45;11832</title>
<path fill="none" stroke="black" d="M749.13,-877.74C775.54,-884.92 811.26,-894.63 837.65,-901.8"/>
<text text-anchor="middle" x="786.64" y="-892.97" font-family="Times,serif" font-size="14.00">60</text>
</g>
<!-- 15196 -->
<g id="node32" class="node">
<title>15196</title>
<ellipse fill="none" stroke="black" cx="655.55" cy="-1029.53" rx="42.6" ry="28.99"/>
<text text-anchor="middle" x="655.55" y="-1032.73" font-family="Times,serif" font-size="14.00">109;107</text>
<text text-anchor="middle" x="655.55" y="-1016.23" font-family="Times,serif" font-size="14.00">15196</text>
</g>
<!-- 11252&#45;&#45;15196 -->
<g id="edge51" class="edge">
<title>11252&#45;&#45;15196</title>
<path fill="none" stroke="black" d="M703.1,-896.1C692.63,-925.49 676.29,-971.33 665.75,-1000.89"/>
<text text-anchor="middle" x="674.3" y="-951.7" font-family="Times,serif" font-size="14.00">140</text>
</g>
<!-- 14608&#45;&#45;15196 -->
<g id="edge52" class="edge">
<title>14608&#45;&#45;15196</title>
<path fill="none" stroke="black" d="M528.11,-986.37C554.27,-995.23 590.1,-1007.37 617.11,-1016.51"/>
<text text-anchor="middle" x="562.48" y="-1004.64" font-family="Times,serif" font-size="14.00">136</text>
</g>
<!-- 17422 -->
<g id="node33" class="node">
<title>17422</title>
<ellipse fill="none" stroke="black" cx="428.43" cy="-1127.69" rx="37.83" ry="28.99"/>
<text text-anchor="middle" x="428.43" y="-1130.89" font-family="Times,serif" font-size="14.00">79;123</text>
<text text-anchor="middle" x="428.43" y="-1114.39" font-family="Times,serif" font-size="14.00">17422</text>
</g>
<!-- 14608&#45;&#45;17422 -->
<g id="edge53" class="edge">
<title>14608&#45;&#45;17422</title>
<path fill="none" stroke="black" d="M481.56,-1002.31C469.87,-1029.88 452.04,-1071.97 440.31,-1099.65"/>
<text text-anchor="middle" x="450.81" y="-1054.18" font-family="Times,serif" font-size="14.00">130</text>
</g>
<!-- 14660&#45;&#45;15196 -->
<g id="edge56" class="edge">
<title>14660&#45;&#45;15196</title>
<path fill="none" stroke="black" d="M777.37,-1064.79C752.38,-1057.56 720.17,-1048.24 695.15,-1040.99"/>
<text text-anchor="middle" x="726.14" y="-1056.09" font-family="Times,serif" font-size="14.00">164</text>
</g>
<!-- 17756 -->
<g id="node35" class="node">
<title>17756</title>
<ellipse fill="none" stroke="black" cx="754.89" cy="-1234.66" rx="42.6" ry="28.99"/>
<text text-anchor="middle" x="754.89" y="-1237.86" font-family="Times,serif" font-size="14.00">131;125</text>
<text text-anchor="middle" x="754.89" y="-1221.36" font-family="Times,serif" font-size="14.00">17756</text>
</g>
<!-- 14660&#45;&#45;17756 -->
<g id="edge57" class="edge">
<title>14660&#45;&#45;17756</title>
<path fill="none" stroke="black" d="M805.75,-1104.54C794.51,-1133.29 777.21,-1177.55 765.97,-1206.31"/>
<text text-anchor="middle" x="775.74" y="-1158.63" font-family="Times,serif" font-size="14.00">104</text>
</g>
<!-- 18296 -->
<g id="node34" class="node">
<title>18296</title>
<ellipse fill="none" stroke="black" cx="592.69" cy="-1185.45" rx="42.6" ry="28.99"/>
<text text-anchor="middle" x="592.69" y="-1188.65" font-family="Times,serif" font-size="14.00">107;129</text>
<text text-anchor="middle" x="592.69" y="-1172.15" font-family="Times,serif" font-size="14.00">18296</text>
</g>
<!-- 15196&#45;&#45;18296 -->
<g id="edge58" class="edge">
<title>15196&#45;&#45;18296</title>
<path fill="none" stroke="black" d="M644.16,-1057.76C632.81,-1085.93 615.46,-1128.97 604.09,-1157.16"/>
<text text-anchor="middle" x="614" y="-1110.66" font-family="Times,serif" font-size="14.00">104</text>
</g>
<!-- 17422&#45;&#45;18250 -->
<g id="edge54" class="edge">
<title>17422&#45;&#45;18250</title>
<path fill="none" stroke="black" d="M394.88,-1114.1C366.7,-1102.69 326.62,-1086.47 298.37,-1075.03"/>
<text text-anchor="middle" x="339.87" y="-1097.77" font-family="Times,serif" font-size="14.00">72</text>
</g>
<!-- 17422&#45;&#45;18296 -->
<g id="edge55" class="edge">
<title>17422&#45;&#45;18296</title>
<path fill="none" stroke="black" d="M463.27,-1139.94C490.01,-1149.34 526.91,-1162.32 554.46,-1172"/>
<text text-anchor="middle" x="498.74" y="-1159.17" font-family="Times,serif" font-size="14.00">298</text>
</g>
<!-- 17756&#45;&#45;18296 -->
<g id="edge59" class="edge">
<title>17756&#45;&#45;18296</title>
<path fill="none" stroke="black" d="M715.63,-1222.75C690.22,-1215.04 657.26,-1205.04 631.87,-1197.34"/>
<text text-anchor="middle" x="663.62" y="-1213.24" font-family="Times,serif" font-size="14.00">188</text>
</g>
<!-- 19879 -->
<g id="node36" class="node">
<title>19879</title>
<ellipse fill="none" stroke="black" cx="829.26" cy="-1372.8" rx="42.6" ry="28.99"/>
<text text-anchor="middle" x="829.26" y="-1376" font-family="Times,serif" font-size="14.00">139;140</text>
<text text-anchor="middle" x="829.26" y="-1359.5" font-family="Times,serif" font-size="14.00">19879</text>
</g>
<!-- 17756&#45;&#45;19879 -->
<g id="edge60" class="edge">
<title>17756&#45;&#45;19879</title>
<path fill="none" stroke="black" d="M769.76,-1262.28C782.73,-1286.38 801.45,-1321.15 814.42,-1345.22"/>
<text text-anchor="middle" x="781.97" y="-1306.95" font-family="Times,serif" font-size="14.00">147</text>
</g>
</g>
</svg>
