<?xml version="1.0" encoding="UTF-8" standalone="no"?>
<!DOCTYPE svg PUBLIC "-//W3C//DTD SVG 1.1//EN"
 "http://www.w3.org/Graphics/SVG/1.1/DTD/svg11.dtd">
<!-- Generated by graphviz version 9.0.0 (0)
 -->
<!-- Pages: 1 -->
<svg width="1996pt" height="980pt"
 viewBox="0.00 0.00 1996.43 980.00" xmlns="http://www.w3.org/2000/svg" xmlns:xlink="http://www.w3.org/1999/xlink">
<g id="graph0" class="graph" transform="scale(1 1) rotate(0) translate(4 976)">
<polygon fill="white" stroke="none" points="-4,4 -4,-976 1992.43,-976 1992.43,4 -4,4"/>
<!-- broadcaster -->
<g id="node1" class="node">
<title>broadcaster</title>
<ellipse fill="none" stroke="green" cx="927" cy="-954" rx="53.4" ry="18"/>
<text text-anchor="middle" x="927" y="-948.95" font-family="Times,serif" font-size="14.00">broadcaster</text>
</g>
<!-- lr -->
<g id="node8" class="node">
<title>lr</title>
<ellipse fill="none" stroke="black" cx="261" cy="-882" rx="27" ry="18"/>
<text text-anchor="middle" x="261" y="-876.95" font-family="Times,serif" font-size="14.00">%lr</text>
</g>
<!-- broadcaster&#45;&gt;lr -->
<g id="edge80" class="edge">
<title>broadcaster&#45;&gt;lr</title>
<path fill="none" stroke="black" d="M876.4,-947.68C748.13,-934.2 412.43,-898.92 299.04,-887"/>
<polygon fill="black" stroke="black" points="299.68,-883.55 289.37,-885.98 298.95,-890.51 299.68,-883.55"/>
</g>
<!-- hh -->
<g id="node18" class="node">
<title>hh</title>
<ellipse fill="none" stroke="black" cx="1147" cy="-882" rx="28.32" ry="18"/>
<text text-anchor="middle" x="1147" y="-876.95" font-family="Times,serif" font-size="14.00">%hh</text>
</g>
<!-- broadcaster&#45;&gt;hh -->
<g id="edge79" class="edge">
<title>broadcaster&#45;&gt;hh</title>
<path fill="none" stroke="black" d="M964.82,-940.97C1005.83,-927.92 1070.81,-907.24 1111.07,-894.43"/>
<polygon fill="black" stroke="black" points="1112.07,-897.79 1120.53,-891.42 1109.94,-891.12 1112.07,-897.79"/>
</g>
<!-- lf -->
<g id="node49" class="node">
<title>lf</title>
<ellipse fill="none" stroke="black" cx="646" cy="-882" rx="27" ry="18"/>
<text text-anchor="middle" x="646" y="-876.95" font-family="Times,serif" font-size="14.00">%lf</text>
</g>
<!-- broadcaster&#45;&gt;lf -->
<g id="edge82" class="edge">
<title>broadcaster&#45;&gt;lf</title>
<path fill="none" stroke="black" d="M884.93,-942.52C829.85,-928.8 734.19,-904.97 682.19,-892.02"/>
<polygon fill="black" stroke="black" points="683.19,-888.66 672.64,-889.64 681.5,-895.45 683.19,-888.66"/>
</g>
<!-- bp -->
<g id="node54" class="node">
<title>bp</title>
<ellipse fill="none" stroke="black" cx="1707" cy="-882" rx="28.32" ry="18"/>
<text text-anchor="middle" x="1707" y="-876.95" font-family="Times,serif" font-size="14.00">%bp</text>
</g>
<!-- broadcaster&#45;&gt;bp -->
<g id="edge81" class="edge">
<title>broadcaster&#45;&gt;bp</title>
<path fill="none" stroke="black" d="M978.18,-948.41C1123.78,-935.34 1538.13,-898.15 1667.75,-886.52"/>
<polygon fill="black" stroke="black" points="1667.88,-890.02 1677.53,-885.64 1667.26,-883.05 1667.88,-890.02"/>
</g>
<!-- rx -->
<g id="node2" class="node">
<title>rx</title>
<ellipse fill="none" stroke="red" cx="845" cy="-450" rx="27" ry="18"/>
<text text-anchor="middle" x="845" y="-444.95" font-family="Times,serif" font-size="14.00">rx</text>
</g>
<!-- qm -->
<g id="node3" class="node">
<title>qm</title>
<ellipse fill="none" stroke="black" cx="249" cy="-594" rx="31.39" ry="18"/>
<text text-anchor="middle" x="249" y="-588.95" font-family="Times,serif" font-size="14.00">%qm</text>
</g>
<!-- mj -->
<g id="node4" class="node">
<title>mj</title>
<ellipse fill="none" stroke="black" cx="228" cy="-738" rx="28.83" ry="18"/>
<text text-anchor="middle" x="228" y="-732.95" font-family="Times,serif" font-size="14.00">&amp;mj</text>
</g>
<!-- qm&#45;&gt;mj -->
<g id="edge1" class="edge">
<title>qm&#45;&gt;mj</title>
<path fill="none" stroke="black" d="M246.47,-612.11C242.95,-635.92 236.52,-679.37 232.26,-708.22"/>
<polygon fill="black" stroke="black" points="228.8,-707.69 230.8,-718.09 235.72,-708.71 228.8,-707.69"/>
</g>
<!-- xn -->
<g id="node5" class="node">
<title>xn</title>
<ellipse fill="none" stroke="black" cx="208" cy="-522" rx="28.32" ry="18"/>
<text text-anchor="middle" x="208" y="-516.95" font-family="Times,serif" font-size="14.00">%xn</text>
</g>
<!-- qm&#45;&gt;xn -->
<g id="edge2" class="edge">
<title>qm&#45;&gt;xn</title>
<path fill="none" stroke="black" d="M239.28,-576.41C234.47,-568.19 228.54,-558.06 223.14,-548.85"/>
<polygon fill="black" stroke="black" points="226.2,-547.15 218.13,-540.29 220.16,-550.69 226.2,-547.15"/>
</g>
<!-- hz -->
<g id="node6" class="node">
<title>hz</title>
<ellipse fill="none" stroke="black" cx="114" cy="-234" rx="27.81" ry="18"/>
<text text-anchor="middle" x="114" y="-228.95" font-family="Times,serif" font-size="14.00">%hz</text>
</g>
<!-- mj&#45;&gt;hz -->
<g id="edge3" class="edge">
<title>mj&#45;&gt;hz</title>
<path fill="none" stroke="black" d="M200.35,-732.23C170.06,-725.79 121.49,-711.78 89,-684 54.35,-654.37 38,-640.59 38,-595 38,-595 38,-595 38,-377 38,-330.73 69.76,-284.94 92.22,-258.35"/>
<polygon fill="black" stroke="black" points="94.77,-260.75 98.71,-250.91 89.5,-256.14 94.77,-260.75"/>
</g>
<!-- bt -->
<g id="node7" class="node">
<title>bt</title>
<ellipse fill="none" stroke="black" cx="845" cy="-594" rx="27" ry="18"/>
<text text-anchor="middle" x="845" y="-588.95" font-family="Times,serif" font-size="14.00">&amp;bt</text>
</g>
<!-- mj&#45;&gt;bt -->
<g id="edge4" class="edge">
<title>mj&#45;&gt;bt</title>
<path fill="none" stroke="black" d="M257.14,-736.64C327.62,-735.08 512.28,-726.88 659,-684 717.33,-666.95 780.08,-633.38 815.75,-612.7"/>
<polygon fill="black" stroke="black" points="817.33,-615.83 824.18,-607.74 813.79,-609.79 817.33,-615.83"/>
</g>
<!-- mj&#45;&gt;lr -->
<g id="edge5" class="edge">
<title>mj&#45;&gt;lr</title>
<path fill="none" stroke="black" d="M236.41,-755.67C244.51,-779.47 255.08,-823.52 259.92,-852.54"/>
<polygon fill="black" stroke="black" points="256.4,-852.72 261.34,-862.09 263.33,-851.68 256.4,-852.72"/>
</g>
<!-- sq -->
<g id="node9" class="node">
<title>sq</title>
<ellipse fill="none" stroke="black" cx="131" cy="-378" rx="27.3" ry="18"/>
<text text-anchor="middle" x="131" y="-372.95" font-family="Times,serif" font-size="14.00">%sq</text>
</g>
<!-- mj&#45;&gt;sq -->
<g id="edge6" class="edge">
<title>mj&#45;&gt;sq</title>
<path fill="none" stroke="black" d="M207.88,-724.67C175.15,-702.9 114,-654.28 114,-595 114,-595 114,-595 114,-521 114,-481.24 120.65,-435.67 125.63,-407.1"/>
<polygon fill="black" stroke="black" points="129.04,-407.92 127.37,-397.46 122.15,-406.68 129.04,-407.92"/>
</g>
<!-- qh -->
<g id="node10" class="node">
<title>qh</title>
<ellipse fill="none" stroke="black" cx="170" cy="-450" rx="28.32" ry="18"/>
<text text-anchor="middle" x="170" y="-444.95" font-family="Times,serif" font-size="14.00">%qh</text>
</g>
<!-- mj&#45;&gt;qh -->
<g id="edge7" class="edge">
<title>mj&#45;&gt;qh</title>
<path fill="none" stroke="black" d="M221.36,-720.23C208.48,-686.67 180.52,-608.59 171,-540 168.22,-519.95 168.02,-497.12 168.49,-479.6"/>
<polygon fill="black" stroke="black" points="171.99,-479.79 168.86,-469.67 164.99,-479.53 171.99,-479.79"/>
</g>
<!-- vq -->
<g id="node11" class="node">
<title>vq</title>
<ellipse fill="none" stroke="black" cx="322" cy="-666" rx="28.32" ry="18"/>
<text text-anchor="middle" x="322" y="-660.95" font-family="Times,serif" font-size="14.00">%vq</text>
</g>
<!-- mj&#45;&gt;vq -->
<g id="edge8" class="edge">
<title>mj&#45;&gt;vq</title>
<path fill="none" stroke="black" d="M246.12,-723.5C260,-713.17 279.35,-698.76 295.04,-687.08"/>
<polygon fill="black" stroke="black" points="297.11,-689.9 303.04,-681.12 292.93,-684.29 297.11,-689.9"/>
</g>
<!-- xn&#45;&gt;mj -->
<g id="edge65" class="edge">
<title>xn&#45;&gt;mj</title>
<path fill="none" stroke="black" d="M207.48,-540.43C207.11,-558.39 206.99,-587.2 209,-612 211.7,-645.28 217.9,-683.14 222.49,-708.39"/>
<polygon fill="black" stroke="black" points="219.04,-709.02 224.31,-718.21 225.93,-707.74 219.04,-709.02"/>
</g>
<!-- xn&#45;&gt;qh -->
<g id="edge66" class="edge">
<title>xn&#45;&gt;qh</title>
<path fill="none" stroke="black" d="M199.19,-504.76C194.73,-496.55 189.2,-486.37 184.16,-477.09"/>
<polygon fill="black" stroke="black" points="187.33,-475.6 179.49,-468.48 181.18,-478.94 187.33,-475.6"/>
</g>
<!-- pc -->
<g id="node24" class="node">
<title>pc</title>
<ellipse fill="none" stroke="black" cx="220" cy="-162" rx="27.81" ry="18"/>
<text text-anchor="middle" x="220" y="-156.95" font-family="Times,serif" font-size="14.00">%pc</text>
</g>
<!-- hz&#45;&gt;pc -->
<g id="edge46" class="edge">
<title>hz&#45;&gt;pc</title>
<path fill="none" stroke="black" d="M132.95,-220.49C149.31,-209.69 173.16,-193.93 191.77,-181.65"/>
<polygon fill="black" stroke="black" points="193.53,-184.67 199.95,-176.24 189.68,-178.83 193.53,-184.67"/>
</g>
<!-- rs -->
<g id="node17" class="node">
<title>rs</title>
<ellipse fill="none" stroke="black" cx="845" cy="-522" rx="27" ry="18"/>
<text text-anchor="middle" x="845" y="-516.95" font-family="Times,serif" font-size="14.00">&amp;rs</text>
</g>
<!-- bt&#45;&gt;rs -->
<g id="edge13" class="edge">
<title>bt&#45;&gt;rs</title>
<path fill="none" stroke="black" d="M845,-575.7C845,-568.41 845,-559.73 845,-551.54"/>
<polygon fill="black" stroke="black" points="848.5,-551.62 845,-541.62 841.5,-551.62 848.5,-551.62"/>
</g>
<!-- lr&#45;&gt;mj -->
<g id="edge41" class="edge">
<title>lr&#45;&gt;mj</title>
<path fill="none" stroke="black" d="M252.63,-864.43C244.51,-840.64 233.91,-796.47 229.07,-767.41"/>
<polygon fill="black" stroke="black" points="232.59,-767.22 227.65,-757.84 225.66,-768.25 232.59,-767.22"/>
</g>
<!-- pz -->
<g id="node38" class="node">
<title>pz</title>
<ellipse fill="none" stroke="black" cx="293" cy="-810" rx="27.81" ry="18"/>
<text text-anchor="middle" x="293" y="-804.95" font-family="Times,serif" font-size="14.00">%pz</text>
</g>
<!-- lr&#45;&gt;pz -->
<g id="edge40" class="edge">
<title>lr&#45;&gt;pz</title>
<path fill="none" stroke="black" d="M268.58,-864.41C272.21,-856.48 276.64,-846.78 280.73,-837.84"/>
<polygon fill="black" stroke="black" points="283.87,-839.4 284.84,-828.85 277.5,-836.49 283.87,-839.4"/>
</g>
<!-- mf -->
<g id="node59" class="node">
<title>mf</title>
<ellipse fill="none" stroke="black" cx="114" cy="-306" rx="29.86" ry="18"/>
<text text-anchor="middle" x="114" y="-300.95" font-family="Times,serif" font-size="14.00">%mf</text>
</g>
<!-- sq&#45;&gt;mf -->
<g id="edge109" class="edge">
<title>sq&#45;&gt;mf</title>
<path fill="none" stroke="black" d="M126.88,-360.05C125.07,-352.6 122.9,-343.64 120.85,-335.22"/>
<polygon fill="black" stroke="black" points="124.31,-334.64 118.55,-325.75 117.51,-336.29 124.31,-334.64"/>
</g>
<!-- qh&#45;&gt;sq -->
<g id="edge12" class="edge">
<title>qh&#45;&gt;sq</title>
<path fill="none" stroke="black" d="M160.95,-432.76C156.38,-424.55 150.71,-414.37 145.54,-405.09"/>
<polygon fill="black" stroke="black" points="148.66,-403.5 140.73,-396.47 142.54,-406.91 148.66,-403.5"/>
</g>
<!-- vq&#45;&gt;qm -->
<g id="edge51" class="edge">
<title>vq&#45;&gt;qm</title>
<path fill="none" stroke="black" d="M306.87,-650.5C297.02,-641.05 283.97,-628.53 272.75,-617.77"/>
<polygon fill="black" stroke="black" points="275.34,-615.41 265.7,-611.02 270.5,-620.46 275.34,-615.41"/>
</g>
<!-- qc -->
<g id="node12" class="node">
<title>qc</title>
<ellipse fill="none" stroke="black" cx="1203" cy="-450" rx="27.81" ry="18"/>
<text text-anchor="middle" x="1203" y="-444.95" font-family="Times,serif" font-size="14.00">%qc</text>
</g>
<!-- qs -->
<g id="node13" class="node">
<title>qs</title>
<ellipse fill="none" stroke="black" cx="1147" cy="-810" rx="27" ry="18"/>
<text text-anchor="middle" x="1147" y="-804.95" font-family="Times,serif" font-size="14.00">&amp;qs</text>
</g>
<!-- qc&#45;&gt;qs -->
<g id="edge9" class="edge">
<title>qc&#45;&gt;qs</title>
<path fill="none" stroke="black" d="M1222.33,-463.28C1254.14,-485.17 1314,-534.17 1314,-593 1314,-667 1314,-667 1314,-667 1314,-735.85 1230.6,-778.3 1181.68,-797.29"/>
<polygon fill="black" stroke="black" points="1180.49,-793.99 1172.35,-800.77 1182.94,-800.55 1180.49,-793.99"/>
</g>
<!-- vg -->
<g id="node14" class="node">
<title>vg</title>
<ellipse fill="none" stroke="black" cx="1146" cy="-378" rx="28.32" ry="18"/>
<text text-anchor="middle" x="1146" y="-372.95" font-family="Times,serif" font-size="14.00">%vg</text>
</g>
<!-- qc&#45;&gt;vg -->
<g id="edge10" class="edge">
<title>qc&#45;&gt;vg</title>
<path fill="none" stroke="black" d="M1190.35,-433.46C1183.12,-424.58 1173.89,-413.25 1165.73,-403.22"/>
<polygon fill="black" stroke="black" points="1168.6,-401.21 1159.57,-395.67 1163.17,-405.63 1168.6,-401.21"/>
</g>
<!-- qs&#45;&gt;vg -->
<g id="edge58" class="edge">
<title>qs&#45;&gt;vg</title>
<path fill="none" stroke="black" d="M1143.25,-792.05C1137.71,-765.52 1128,-712.52 1128,-667 1128,-667 1128,-667 1128,-521 1128,-481.21 1135.04,-435.64 1140.32,-407.09"/>
<polygon fill="black" stroke="black" points="1143.72,-407.93 1142.16,-397.45 1136.84,-406.61 1143.72,-407.93"/>
</g>
<!-- qs&#45;&gt;hh -->
<g id="edge59" class="edge">
<title>qs&#45;&gt;hh</title>
<path fill="none" stroke="black" d="M1152.86,-827.79C1153.66,-835.25 1153.92,-844.24 1153.64,-852.69"/>
<polygon fill="black" stroke="black" points="1150.16,-852.33 1152.98,-862.54 1157.14,-852.8 1150.16,-852.33"/>
</g>
<!-- bx -->
<g id="node19" class="node">
<title>bx</title>
<ellipse fill="none" stroke="black" cx="1408" cy="-738" rx="28.32" ry="18"/>
<text text-anchor="middle" x="1408" y="-732.95" font-family="Times,serif" font-size="14.00">%bx</text>
</g>
<!-- qs&#45;&gt;bx -->
<g id="edge56" class="edge">
<title>qs&#45;&gt;bx</title>
<path fill="none" stroke="black" d="M1172.96,-804.01C1214.32,-795.77 1297.48,-778.03 1366,-756 1368.75,-755.12 1371.58,-754.13 1374.4,-753.1"/>
<polygon fill="black" stroke="black" points="1375.63,-756.38 1383.71,-749.52 1373.12,-749.85 1375.63,-756.38"/>
</g>
<!-- sz -->
<g id="node32" class="node">
<title>sz</title>
<ellipse fill="none" stroke="black" cx="1259" cy="-666" rx="27" ry="18"/>
<text text-anchor="middle" x="1259" y="-660.95" font-family="Times,serif" font-size="14.00">%sz</text>
</g>
<!-- qs&#45;&gt;sz -->
<g id="edge60" class="edge">
<title>qs&#45;&gt;sz</title>
<path fill="none" stroke="black" d="M1167.23,-797.72C1182.76,-788.24 1203.87,-773.45 1218,-756 1232.72,-737.82 1243.45,-713.51 1250.24,-694.88"/>
<polygon fill="black" stroke="black" points="1253.5,-696.15 1253.46,-685.56 1246.88,-693.87 1253.5,-696.15"/>
</g>
<!-- jz -->
<g id="node41" class="node">
<title>jz</title>
<ellipse fill="none" stroke="black" cx="1221" cy="-594" rx="27" ry="18"/>
<text text-anchor="middle" x="1221" y="-588.95" font-family="Times,serif" font-size="14.00">%jz</text>
</g>
<!-- qs&#45;&gt;jz -->
<g id="edge55" class="edge">
<title>qs&#45;&gt;jz</title>
<path fill="none" stroke="black" d="M1158.46,-793.46C1165.53,-783.26 1174.3,-769.36 1180,-756 1199.05,-711.34 1210.77,-655.8 1216.57,-623"/>
<polygon fill="black" stroke="black" points="1219.96,-623.94 1218.19,-613.5 1213.06,-622.77 1219.96,-623.94"/>
</g>
<!-- vk -->
<g id="node42" class="node">
<title>vk</title>
<ellipse fill="none" stroke="black" cx="1203" cy="-522" rx="28.32" ry="18"/>
<text text-anchor="middle" x="1203" y="-516.95" font-family="Times,serif" font-size="14.00">%vk</text>
</g>
<!-- qs&#45;&gt;vk -->
<g id="edge57" class="edge">
<title>qs&#45;&gt;vk</title>
<path fill="none" stroke="black" d="M1148.84,-791.55C1153.18,-752.52 1165.2,-655.33 1185,-576 1187.08,-567.67 1189.87,-558.78 1192.63,-550.7"/>
<polygon fill="black" stroke="black" points="1195.88,-551.99 1195.93,-541.4 1189.28,-549.65 1195.88,-551.99"/>
</g>
<!-- dl -->
<g id="node48" class="node">
<title>dl</title>
<ellipse fill="none" stroke="black" cx="921" cy="-666" rx="27" ry="18"/>
<text text-anchor="middle" x="921" y="-660.95" font-family="Times,serif" font-size="14.00">&amp;dl</text>
</g>
<!-- qs&#45;&gt;dl -->
<g id="edge54" class="edge">
<title>qs&#45;&gt;dl</title>
<path fill="none" stroke="black" d="M1119.83,-808.11C1080.56,-805.45 1007.64,-795.16 962,-756 943.74,-740.33 933.14,-714.81 927.31,-695.1"/>
<polygon fill="black" stroke="black" points="930.7,-694.23 924.73,-685.47 923.94,-696.04 930.7,-694.23"/>
</g>
<!-- hf -->
<g id="node51" class="node">
<title>hf</title>
<ellipse fill="none" stroke="black" cx="1107" cy="-306" rx="27" ry="18"/>
<text text-anchor="middle" x="1107" y="-300.95" font-family="Times,serif" font-size="14.00">%hf</text>
</g>
<!-- vg&#45;&gt;hf -->
<g id="edge108" class="edge">
<title>vg&#45;&gt;hf</title>
<path fill="none" stroke="black" d="M1136.95,-360.76C1132.38,-352.55 1126.71,-342.37 1121.54,-333.09"/>
<polygon fill="black" stroke="black" points="1124.66,-331.5 1116.73,-324.47 1118.54,-334.91 1124.66,-331.5"/>
</g>
<!-- ng -->
<g id="node15" class="node">
<title>ng</title>
<ellipse fill="none" stroke="black" cx="472" cy="-594" rx="28.32" ry="18"/>
<text text-anchor="middle" x="472" y="-588.95" font-family="Times,serif" font-size="14.00">%ng</text>
</g>
<!-- vr -->
<g id="node16" class="node">
<title>vr</title>
<ellipse fill="none" stroke="black" cx="587" cy="-522" rx="27" ry="18"/>
<text text-anchor="middle" x="587" y="-516.95" font-family="Times,serif" font-size="14.00">%vr</text>
</g>
<!-- ng&#45;&gt;vr -->
<g id="edge11" class="edge">
<title>ng&#45;&gt;vr</title>
<path fill="none" stroke="black" d="M492.03,-580.81C510.2,-569.75 537.2,-553.31 557.78,-540.79"/>
<polygon fill="black" stroke="black" points="559.57,-543.8 566.29,-535.61 555.93,-537.82 559.57,-543.8"/>
</g>
<!-- bz -->
<g id="node39" class="node">
<title>bz</title>
<ellipse fill="none" stroke="black" cx="624" cy="-450" rx="27.81" ry="18"/>
<text text-anchor="middle" x="624" y="-444.95" font-family="Times,serif" font-size="14.00">%bz</text>
</g>
<!-- vr&#45;&gt;bz -->
<g id="edge85" class="edge">
<title>vr&#45;&gt;bz</title>
<path fill="none" stroke="black" d="M595.58,-504.76C599.92,-496.55 605.3,-486.37 610.21,-477.09"/>
<polygon fill="black" stroke="black" points="613.18,-478.96 614.76,-468.49 606.99,-475.69 613.18,-478.96"/>
</g>
<!-- rs&#45;&gt;rx -->
<g id="edge71" class="edge">
<title>rs&#45;&gt;rx</title>
<path fill="none" stroke="black" d="M845,-503.7C845,-496.41 845,-487.73 845,-479.54"/>
<polygon fill="black" stroke="black" points="848.5,-479.62 845,-469.62 841.5,-479.62 848.5,-479.62"/>
</g>
<!-- hh&#45;&gt;qs -->
<g id="edge14" class="edge">
<title>hh&#45;&gt;qs</title>
<path fill="none" stroke="black" d="M1141.12,-864.05C1140.33,-856.57 1140.08,-847.58 1140.37,-839.14"/>
<polygon fill="black" stroke="black" points="1143.85,-839.51 1141.04,-829.3 1136.87,-839.04 1143.85,-839.51"/>
</g>
<!-- hh&#45;&gt;bx -->
<g id="edge15" class="edge">
<title>hh&#45;&gt;bx</title>
<path fill="none" stroke="black" d="M1167.92,-869.62C1213.73,-844.69 1323.14,-785.17 1376.99,-755.87"/>
<polygon fill="black" stroke="black" points="1378.54,-759.01 1385.65,-751.16 1375.2,-752.86 1378.54,-759.01"/>
</g>
<!-- bx&#45;&gt;sz -->
<g id="edge27" class="edge">
<title>bx&#45;&gt;sz</title>
<path fill="none" stroke="black" d="M1385.69,-726.52C1360.5,-714.68 1319.3,-695.33 1290.75,-681.92"/>
<polygon fill="black" stroke="black" points="1292.4,-678.82 1281.86,-677.74 1289.42,-685.16 1292.4,-678.82"/>
</g>
<!-- gk -->
<g id="node20" class="node">
<title>gk</title>
<ellipse fill="none" stroke="black" cx="1782" cy="-666" rx="28.32" ry="18"/>
<text text-anchor="middle" x="1782" y="-660.95" font-family="Times,serif" font-size="14.00">%gk</text>
</g>
<!-- cs -->
<g id="node21" class="node">
<title>cs</title>
<ellipse fill="none" stroke="black" cx="1707" cy="-810" rx="27" ry="18"/>
<text text-anchor="middle" x="1707" y="-804.95" font-family="Times,serif" font-size="14.00">&amp;cs</text>
</g>
<!-- gk&#45;&gt;cs -->
<g id="edge16" class="edge">
<title>gk&#45;&gt;cs</title>
<path fill="none" stroke="black" d="M1774.82,-683.69C1766.87,-701.79 1753.41,-731.4 1740,-756 1735,-765.17 1729.1,-774.94 1723.67,-783.56"/>
<polygon fill="black" stroke="black" points="1720.86,-781.47 1718.42,-791.78 1726.76,-785.24 1720.86,-781.47"/>
</g>
<!-- bb -->
<g id="node22" class="node">
<title>bb</title>
<ellipse fill="none" stroke="black" cx="1763" cy="-594" rx="28.32" ry="18"/>
<text text-anchor="middle" x="1763" y="-588.95" font-family="Times,serif" font-size="14.00">%bb</text>
</g>
<!-- gk&#45;&gt;bb -->
<g id="edge17" class="edge">
<title>gk&#45;&gt;bb</title>
<path fill="none" stroke="black" d="M1777.4,-648.05C1775.35,-640.49 1772.87,-631.37 1770.56,-622.85"/>
<polygon fill="black" stroke="black" points="1773.95,-621.98 1767.95,-613.25 1767.2,-623.82 1773.95,-621.98"/>
</g>
<!-- bh -->
<g id="node45" class="node">
<title>bh</title>
<ellipse fill="none" stroke="black" cx="1763" cy="-522" rx="28.32" ry="18"/>
<text text-anchor="middle" x="1763" y="-516.95" font-family="Times,serif" font-size="14.00">%bh</text>
</g>
<!-- cs&#45;&gt;bh -->
<g id="edge97" class="edge">
<title>cs&#45;&gt;bh</title>
<path fill="none" stroke="black" d="M1705.4,-791.69C1702.37,-752.11 1698.38,-652.54 1726,-576 1729.71,-565.72 1735.95,-555.6 1742.26,-546.99"/>
<polygon fill="black" stroke="black" points="1744.95,-549.23 1748.35,-539.19 1739.43,-544.92 1744.95,-549.23"/>
</g>
<!-- ss -->
<g id="node53" class="node">
<title>ss</title>
<ellipse fill="none" stroke="black" cx="1648" cy="-234" rx="27" ry="18"/>
<text text-anchor="middle" x="1648" y="-228.95" font-family="Times,serif" font-size="14.00">%ss</text>
</g>
<!-- cs&#45;&gt;ss -->
<g id="edge95" class="edge">
<title>cs&#45;&gt;ss</title>
<path fill="none" stroke="black" d="M1690.02,-795.7C1662.69,-772.67 1612,-722.47 1612,-667 1612,-667 1612,-667 1612,-377 1612,-336.09 1626.21,-290.54 1636.78,-262.32"/>
<polygon fill="black" stroke="black" points="1639.99,-263.7 1640.34,-253.11 1633.47,-261.17 1639.99,-263.7"/>
</g>
<!-- cs&#45;&gt;bp -->
<g id="edge98" class="edge">
<title>cs&#45;&gt;bp</title>
<path fill="none" stroke="black" d="M1712.86,-827.79C1713.66,-835.25 1713.92,-844.24 1713.64,-852.69"/>
<polygon fill="black" stroke="black" points="1710.16,-852.33 1712.98,-862.54 1717.14,-852.8 1710.16,-852.33"/>
</g>
<!-- rv -->
<g id="node57" class="node">
<title>rv</title>
<ellipse fill="none" stroke="black" cx="1481" cy="-738" rx="27" ry="18"/>
<text text-anchor="middle" x="1481" y="-732.95" font-family="Times,serif" font-size="14.00">&amp;rv</text>
</g>
<!-- cs&#45;&gt;rv -->
<g id="edge96" class="edge">
<title>cs&#45;&gt;rv</title>
<path fill="none" stroke="black" d="M1681.88,-802.78C1646.03,-793.67 1578.3,-775.67 1522,-756 1519.26,-755.04 1516.44,-754 1513.63,-752.92"/>
<polygon fill="black" stroke="black" points="1514.94,-749.67 1504.36,-749.21 1512.34,-756.17 1514.94,-749.67"/>
</g>
<!-- lx -->
<g id="node58" class="node">
<title>lx</title>
<ellipse fill="none" stroke="black" cx="1931" cy="-738" rx="27" ry="18"/>
<text text-anchor="middle" x="1931" y="-732.95" font-family="Times,serif" font-size="14.00">%lx</text>
</g>
<!-- cs&#45;&gt;lx -->
<g id="edge94" class="edge">
<title>cs&#45;&gt;lx</title>
<path fill="none" stroke="black" d="M1732.14,-802.67C1767.67,-793.5 1834.45,-775.49 1890,-756 1892.74,-755.04 1895.55,-754 1898.37,-752.91"/>
<polygon fill="black" stroke="black" points="1899.66,-756.16 1907.64,-749.19 1897.06,-749.67 1899.66,-756.16"/>
</g>
<!-- bb&#45;&gt;cs -->
<g id="edge100" class="edge">
<title>bb&#45;&gt;cs</title>
<path fill="none" stroke="black" d="M1756.74,-612.05C1753.07,-622.38 1748.49,-635.86 1745,-648 1731.79,-694.02 1719.67,-748.37 1712.82,-780.7"/>
<polygon fill="black" stroke="black" points="1709.4,-779.95 1710.78,-790.46 1716.25,-781.39 1709.4,-779.95"/>
</g>
<!-- bb&#45;&gt;bh -->
<g id="edge99" class="edge">
<title>bb&#45;&gt;bh</title>
<path fill="none" stroke="black" d="M1763,-575.7C1763,-568.41 1763,-559.73 1763,-551.54"/>
<polygon fill="black" stroke="black" points="1766.5,-551.62 1763,-541.62 1759.5,-551.62 1766.5,-551.62"/>
</g>
<!-- js -->
<g id="node23" class="node">
<title>js</title>
<ellipse fill="none" stroke="black" cx="352" cy="-18" rx="27" ry="18"/>
<text text-anchor="middle" x="352" y="-12.95" font-family="Times,serif" font-size="14.00">%js</text>
</g>
<!-- js&#45;&gt;mj -->
<g id="edge18" class="edge">
<title>js&#45;&gt;mj</title>
<path fill="none" stroke="black" d="M357.14,-35.87C364.71,-62.28 378,-115.14 378,-161 378,-595 378,-595 378,-595 378,-635.45 385.01,-653.02 359,-684 336.09,-711.29 297.02,-724.67 267.49,-731.15"/>
<polygon fill="black" stroke="black" points="266.91,-727.69 257.78,-733.08 268.27,-734.56 266.91,-727.69"/>
</g>
<!-- pc&#45;&gt;mj -->
<g id="edge19" class="edge">
<title>pc&#45;&gt;mj</title>
<path fill="none" stroke="black" d="M236.14,-176.94C261.55,-200.54 308,-251.05 308,-305 308,-523 308,-523 308,-523 308,-594.76 268.05,-671.97 244.61,-711.09"/>
<polygon fill="black" stroke="black" points="241.66,-709.21 239.41,-719.56 247.62,-712.87 241.66,-709.21"/>
</g>
<!-- mr -->
<g id="node25" class="node">
<title>mr</title>
<ellipse fill="none" stroke="black" cx="220" cy="-90" rx="29.86" ry="18"/>
<text text-anchor="middle" x="220" y="-84.95" font-family="Times,serif" font-size="14.00">%mr</text>
</g>
<!-- pc&#45;&gt;mr -->
<g id="edge20" class="edge">
<title>pc&#45;&gt;mr</title>
<path fill="none" stroke="black" d="M220,-143.7C220,-136.41 220,-127.73 220,-119.54"/>
<polygon fill="black" stroke="black" points="223.5,-119.62 220,-109.62 216.5,-119.62 223.5,-119.62"/>
</g>
<!-- mr&#45;&gt;mj -->
<g id="edge105" class="edge">
<title>mr&#45;&gt;mj</title>
<path fill="none" stroke="black" d="M191.24,-95.7C131.61,-107.27 0,-142.99 0,-233 0,-595 0,-595 0,-595 0,-640.15 13.82,-655.69 49,-684 89.24,-716.39 148.76,-728.99 187.96,-733.89"/>
<polygon fill="black" stroke="black" points="187.34,-737.34 197.67,-734.98 188.13,-730.39 187.34,-737.34"/>
</g>
<!-- mr&#45;&gt;js -->
<g id="edge106" class="edge">
<title>mr&#45;&gt;js</title>
<path fill="none" stroke="black" d="M241.8,-77.44C263.48,-65.94 296.96,-48.19 321.32,-35.27"/>
<polygon fill="black" stroke="black" points="322.94,-38.37 330.14,-30.59 319.66,-32.19 322.94,-38.37"/>
</g>
<!-- mb -->
<g id="node26" class="node">
<title>mb</title>
<ellipse fill="none" stroke="black" cx="607" cy="-162" rx="31.39" ry="18"/>
<text text-anchor="middle" x="607" y="-156.95" font-family="Times,serif" font-size="14.00">%mb</text>
</g>
<!-- rd -->
<g id="node27" class="node">
<title>rd</title>
<ellipse fill="none" stroke="black" cx="623" cy="-666" rx="27" ry="18"/>
<text text-anchor="middle" x="623" y="-660.95" font-family="Times,serif" font-size="14.00">&amp;rd</text>
</g>
<!-- mb&#45;&gt;rd -->
<g id="edge21" class="edge">
<title>mb&#45;&gt;rd</title>
<path fill="none" stroke="black" d="M638.63,-163.94C714.4,-168.04 900,-189.83 900,-305 900,-523 900,-523 900,-523 900,-563.45 909.71,-583.51 881,-612 850.44,-642.32 725.28,-656.71 661.19,-662.2"/>
<polygon fill="black" stroke="black" points="661.16,-658.69 651.48,-663 661.74,-665.67 661.16,-658.69"/>
</g>
<!-- xs -->
<g id="node28" class="node">
<title>xs</title>
<ellipse fill="none" stroke="black" cx="494" cy="-90" rx="27.3" ry="18"/>
<text text-anchor="middle" x="494" y="-84.95" font-family="Times,serif" font-size="14.00">%xs</text>
</g>
<!-- mb&#45;&gt;xs -->
<g id="edge22" class="edge">
<title>mb&#45;&gt;xs</title>
<path fill="none" stroke="black" d="M586.27,-148.16C568.59,-137.2 542.95,-121.32 523.19,-109.08"/>
<polygon fill="black" stroke="black" points="525.09,-106.14 514.75,-103.85 521.41,-112.09 525.09,-106.14"/>
</g>
<!-- rd&#45;&gt;ng -->
<g id="edge72" class="edge">
<title>rd&#45;&gt;ng</title>
<path fill="none" stroke="black" d="M601.37,-654.97C576.09,-643.25 534.01,-623.75 504.73,-610.17"/>
<polygon fill="black" stroke="black" points="506.5,-607.13 495.95,-606.1 503.55,-613.49 506.5,-607.13"/>
</g>
<!-- rd&#45;&gt;vr -->
<g id="edge76" class="edge">
<title>rd&#45;&gt;vr</title>
<path fill="none" stroke="black" d="M618.66,-647.87C612.58,-623.88 601.45,-579.99 594.14,-551.16"/>
<polygon fill="black" stroke="black" points="597.58,-550.49 591.73,-541.66 590.79,-552.21 597.58,-550.49"/>
</g>
<!-- rz -->
<g id="node44" class="node">
<title>rz</title>
<ellipse fill="none" stroke="black" cx="643" cy="-306" rx="27" ry="18"/>
<text text-anchor="middle" x="643" y="-300.95" font-family="Times,serif" font-size="14.00">%rz</text>
</g>
<!-- rd&#45;&gt;rz -->
<g id="edge74" class="edge">
<title>rd&#45;&gt;rz</title>
<path fill="none" stroke="black" d="M639.98,-651.7C667.31,-628.67 718,-578.47 718,-523 718,-523 718,-523 718,-449 718,-402.86 686.66,-357.04 664.5,-330.4"/>
<polygon fill="black" stroke="black" points="667.27,-328.25 658.09,-322.95 661.96,-332.82 667.27,-328.25"/>
</g>
<!-- rd&#45;&gt;lf -->
<g id="edge75" class="edge">
<title>rd&#45;&gt;lf</title>
<path fill="none" stroke="black" d="M628.68,-683.94C636.14,-720.53 645.77,-807.34 647.7,-852.54"/>
<polygon fill="black" stroke="black" points="644.2,-852.44 647.99,-862.34 651.2,-852.24 644.2,-852.44"/>
</g>
<!-- fr -->
<g id="node50" class="node">
<title>fr</title>
<ellipse fill="none" stroke="black" cx="773" cy="-594" rx="27" ry="18"/>
<text text-anchor="middle" x="773" y="-588.95" font-family="Times,serif" font-size="14.00">&amp;fr</text>
</g>
<!-- rd&#45;&gt;fr -->
<g id="edge73" class="edge">
<title>rd&#45;&gt;fr</title>
<path fill="none" stroke="black" d="M644.81,-654.82C670.03,-643.05 711.77,-623.57 740.75,-610.05"/>
<polygon fill="black" stroke="black" points="742.21,-613.23 749.79,-605.83 739.25,-606.89 742.21,-613.23"/>
</g>
<!-- xs&#45;&gt;rd -->
<g id="edge43" class="edge">
<title>xs&#45;&gt;rd</title>
<path fill="none" stroke="black" d="M494,-108.49C494,-135.29 494,-188.13 494,-233 494,-451 494,-451 494,-451 494,-529.03 518.38,-548.7 564,-612 572.93,-624.39 585.2,-636 596.24,-645.17"/>
<polygon fill="black" stroke="black" points="593.94,-647.81 603.94,-651.32 598.31,-642.34 593.94,-647.81"/>
</g>
<!-- cv -->
<g id="node35" class="node">
<title>cv</title>
<ellipse fill="none" stroke="black" cx="442" cy="-18" rx="27.81" ry="18"/>
<text text-anchor="middle" x="442" y="-12.95" font-family="Times,serif" font-size="14.00">%cv</text>
</g>
<!-- xs&#45;&gt;cv -->
<g id="edge42" class="edge">
<title>xs&#45;&gt;cv</title>
<path fill="none" stroke="black" d="M482.46,-73.46C475.93,-64.67 467.61,-53.48 460.22,-43.53"/>
<polygon fill="black" stroke="black" points="463.18,-41.65 454.41,-35.71 457.56,-45.82 463.18,-41.65"/>
</g>
<!-- tp -->
<g id="node29" class="node">
<title>tp</title>
<ellipse fill="none" stroke="black" cx="1089" cy="-162" rx="27" ry="18"/>
<text text-anchor="middle" x="1089" y="-156.95" font-family="Times,serif" font-size="14.00">%tp</text>
</g>
<!-- tp&#45;&gt;qs -->
<g id="edge23" class="edge">
<title>tp&#45;&gt;qs</title>
<path fill="none" stroke="black" d="M1116.24,-163.41C1190.34,-166.1 1390,-184.53 1390,-305 1390,-523 1390,-523 1390,-523 1390,-550.17 1330.53,-721.03 1291,-756 1260.79,-782.73 1215.95,-796.38 1184.34,-803.07"/>
<polygon fill="black" stroke="black" points="1183.97,-799.58 1174.84,-804.94 1185.32,-806.45 1183.97,-799.58"/>
</g>
<!-- ks -->
<g id="node30" class="node">
<title>ks</title>
<ellipse fill="none" stroke="black" cx="1031" cy="-90" rx="27.3" ry="18"/>
<text text-anchor="middle" x="1031" y="-84.95" font-family="Times,serif" font-size="14.00">%ks</text>
</g>
<!-- tp&#45;&gt;ks -->
<g id="edge24" class="edge">
<title>tp&#45;&gt;ks</title>
<path fill="none" stroke="black" d="M1076.41,-145.81C1068.89,-136.73 1059.17,-125 1050.65,-114.72"/>
<polygon fill="black" stroke="black" points="1053.6,-112.79 1044.53,-107.32 1048.21,-117.26 1053.6,-112.79"/>
</g>
<!-- ks&#45;&gt;qs -->
<g id="edge52" class="edge">
<title>ks&#45;&gt;qs</title>
<path fill="none" stroke="black" d="M1027.64,-107.97C1022.69,-134.52 1014,-187.56 1014,-233 1014,-667 1014,-667 1014,-667 1014,-726.22 1076.39,-770.93 1115.7,-793.23"/>
<polygon fill="black" stroke="black" points="1113.85,-796.2 1124.3,-797.94 1117.21,-790.06 1113.85,-796.2"/>
</g>
<!-- nd -->
<g id="node47" class="node">
<title>nd</title>
<ellipse fill="none" stroke="black" cx="1004" cy="-18" rx="28.32" ry="18"/>
<text text-anchor="middle" x="1004" y="-12.95" font-family="Times,serif" font-size="14.00">%nd</text>
</g>
<!-- ks&#45;&gt;nd -->
<g id="edge53" class="edge">
<title>ks&#45;&gt;nd</title>
<path fill="none" stroke="black" d="M1024.46,-72.05C1021.48,-64.32 1017.87,-54.96 1014.52,-46.27"/>
<polygon fill="black" stroke="black" points="1017.88,-45.27 1011.02,-37.2 1011.35,-47.79 1017.88,-45.27"/>
</g>
<!-- xq -->
<g id="node31" class="node">
<title>xq</title>
<ellipse fill="none" stroke="black" cx="1089" cy="-234" rx="28.32" ry="18"/>
<text text-anchor="middle" x="1089" y="-228.95" font-family="Times,serif" font-size="14.00">%xq</text>
</g>
<!-- xq&#45;&gt;qs -->
<g id="edge26" class="edge">
<title>xq&#45;&gt;qs</title>
<path fill="none" stroke="black" d="M1081.69,-251.68C1070.91,-277.85 1052,-330.38 1052,-377 1052,-667 1052,-667 1052,-667 1052,-717.05 1093.27,-762.81 1121.41,-788.2"/>
<polygon fill="black" stroke="black" points="1119.04,-790.77 1128.88,-794.71 1123.64,-785.5 1119.04,-790.77"/>
</g>
<!-- xq&#45;&gt;tp -->
<g id="edge25" class="edge">
<title>xq&#45;&gt;tp</title>
<path fill="none" stroke="black" d="M1089,-215.7C1089,-208.41 1089,-199.73 1089,-191.54"/>
<polygon fill="black" stroke="black" points="1092.5,-191.62 1089,-181.62 1085.5,-191.62 1092.5,-191.62"/>
</g>
<!-- sz&#45;&gt;jz -->
<g id="edge39" class="edge">
<title>sz&#45;&gt;jz</title>
<path fill="none" stroke="black" d="M1250.19,-648.76C1245.73,-640.55 1240.2,-630.37 1235.16,-621.09"/>
<polygon fill="black" stroke="black" points="1238.33,-619.6 1230.49,-612.48 1232.18,-622.94 1238.33,-619.6"/>
</g>
<!-- mn -->
<g id="node33" class="node">
<title>mn</title>
<ellipse fill="none" stroke="black" cx="1595" cy="-90" rx="31.39" ry="18"/>
<text text-anchor="middle" x="1595" y="-84.95" font-family="Times,serif" font-size="14.00">%mn</text>
</g>
<!-- mn&#45;&gt;cs -->
<g id="edge28" class="edge">
<title>mn&#45;&gt;cs</title>
<path fill="none" stroke="black" d="M1590.85,-107.93C1584.73,-134.43 1574,-187.39 1574,-233 1574,-667 1574,-667 1574,-667 1574,-726.22 1636.39,-770.93 1675.7,-793.23"/>
<polygon fill="black" stroke="black" points="1673.85,-796.2 1684.3,-797.94 1677.21,-790.06 1673.85,-796.2"/>
</g>
<!-- md -->
<g id="node34" class="node">
<title>md</title>
<ellipse fill="none" stroke="black" cx="1565" cy="-18" rx="31.39" ry="18"/>
<text text-anchor="middle" x="1565" y="-12.95" font-family="Times,serif" font-size="14.00">%md</text>
</g>
<!-- mn&#45;&gt;md -->
<g id="edge29" class="edge">
<title>mn&#45;&gt;md</title>
<path fill="none" stroke="black" d="M1587.74,-72.05C1584.42,-64.32 1580.41,-54.96 1576.69,-46.27"/>
<polygon fill="black" stroke="black" points="1579.95,-44.99 1572.79,-37.18 1573.51,-47.75 1579.95,-44.99"/>
</g>
<!-- md&#45;&gt;cs -->
<g id="edge33" class="edge">
<title>md&#45;&gt;cs</title>
<path fill="none" stroke="black" d="M1559.27,-35.82C1550.82,-62.18 1536,-114.95 1536,-161 1536,-667 1536,-667 1536,-667 1536,-713.27 1555.38,-725.31 1590,-756 1613.44,-776.78 1646.39,-790.72 1671.35,-799.06"/>
<polygon fill="black" stroke="black" points="1670.16,-802.35 1680.75,-802.05 1672.28,-795.68 1670.16,-802.35"/>
</g>
<!-- cv&#45;&gt;rd -->
<g id="edge30" class="edge">
<title>cv&#45;&gt;rd</title>
<path fill="none" stroke="black" d="M436.86,-35.87C429.29,-62.28 416,-115.14 416,-161 416,-523 416,-523 416,-523 416,-563.45 407.34,-582.49 435,-612 473.58,-653.16 541.41,-663.2 584.18,-665.19"/>
<polygon fill="black" stroke="black" points="583.92,-668.69 594.02,-665.51 584.14,-661.69 583.92,-668.69"/>
</g>
<!-- rh -->
<g id="node36" class="node">
<title>rh</title>
<ellipse fill="none" stroke="black" cx="582" cy="-810" rx="27" ry="18"/>
<text text-anchor="middle" x="582" y="-804.95" font-family="Times,serif" font-size="14.00">%rh</text>
</g>
<!-- rh&#45;&gt;rd -->
<g id="edge31" class="edge">
<title>rh&#45;&gt;rd</title>
<path fill="none" stroke="black" d="M586.95,-791.87C593.87,-767.88 606.54,-723.99 614.87,-695.16"/>
<polygon fill="black" stroke="black" points="618.21,-696.22 617.62,-685.64 611.48,-694.28 618.21,-696.22"/>
</g>
<!-- sv -->
<g id="node37" class="node">
<title>sv</title>
<ellipse fill="none" stroke="black" cx="544" cy="-738" rx="27.3" ry="18"/>
<text text-anchor="middle" x="544" y="-732.95" font-family="Times,serif" font-size="14.00">%sv</text>
</g>
<!-- rh&#45;&gt;sv -->
<g id="edge32" class="edge">
<title>rh&#45;&gt;sv</title>
<path fill="none" stroke="black" d="M573.19,-792.76C568.73,-784.55 563.2,-774.37 558.16,-765.09"/>
<polygon fill="black" stroke="black" points="561.33,-763.6 553.49,-756.48 555.18,-766.94 561.33,-763.6"/>
</g>
<!-- sv&#45;&gt;ng -->
<g id="edge70" class="edge">
<title>sv&#45;&gt;ng</title>
<path fill="none" stroke="black" d="M535.6,-720.43C523.3,-696.17 500.25,-650.71 485.54,-621.7"/>
<polygon fill="black" stroke="black" points="488.68,-620.15 481.03,-612.81 482.43,-623.31 488.68,-620.15"/>
</g>
<!-- sv&#45;&gt;rd -->
<g id="edge69" class="edge">
<title>sv&#45;&gt;rd</title>
<path fill="none" stroke="black" d="M559.61,-723.17C570.79,-713.26 586.06,-699.73 598.81,-688.43"/>
<polygon fill="black" stroke="black" points="600.86,-691.3 606.02,-682.04 596.22,-686.06 600.86,-691.3"/>
</g>
<!-- pz&#45;&gt;mj -->
<g id="edge34" class="edge">
<title>pz&#45;&gt;mj</title>
<path fill="none" stroke="black" d="M279.22,-794.15C270.6,-784.87 259.32,-772.73 249.54,-762.19"/>
<polygon fill="black" stroke="black" points="252.16,-759.88 242.79,-754.93 247.03,-764.64 252.16,-759.88"/>
</g>
<!-- pz&#45;&gt;vq -->
<g id="edge35" class="edge">
<title>pz&#45;&gt;vq</title>
<path fill="none" stroke="black" d="M296.5,-791.87C301.4,-767.88 310.36,-723.99 316.25,-695.16"/>
<polygon fill="black" stroke="black" points="319.61,-696.17 318.19,-685.67 312.76,-694.77 319.61,-696.17"/>
</g>
<!-- bz&#45;&gt;rd -->
<g id="edge36" class="edge">
<title>bz&#45;&gt;rd</title>
<path fill="none" stroke="black" d="M623.92,-468.23C623.75,-505.01 623.34,-591.5 623.13,-636.57"/>
<polygon fill="black" stroke="black" points="619.63,-636.32 623.09,-646.34 626.63,-636.35 619.63,-636.32"/>
</g>
<!-- hk -->
<g id="node40" class="node">
<title>hk</title>
<ellipse fill="none" stroke="black" cx="643" cy="-378" rx="28.32" ry="18"/>
<text text-anchor="middle" x="643" y="-372.95" font-family="Times,serif" font-size="14.00">%hk</text>
</g>
<!-- bz&#45;&gt;hk -->
<g id="edge37" class="edge">
<title>bz&#45;&gt;hk</title>
<path fill="none" stroke="black" d="M628.6,-432.05C630.65,-424.49 633.13,-415.37 635.44,-406.85"/>
<polygon fill="black" stroke="black" points="638.8,-407.82 638.05,-397.25 632.05,-405.98 638.8,-407.82"/>
</g>
<!-- hk&#45;&gt;rd -->
<g id="edge48" class="edge">
<title>hk&#45;&gt;rd</title>
<path fill="none" stroke="black" d="M650.29,-395.82C654.33,-406.06 658.94,-419.54 661,-432 673.26,-506.24 648.39,-593.83 633.34,-637.44"/>
<polygon fill="black" stroke="black" points="630.13,-636.02 630.08,-646.61 636.73,-638.36 630.13,-636.02"/>
</g>
<!-- hk&#45;&gt;rz -->
<g id="edge47" class="edge">
<title>hk&#45;&gt;rz</title>
<path fill="none" stroke="black" d="M643,-359.7C643,-352.41 643,-343.73 643,-335.54"/>
<polygon fill="black" stroke="black" points="646.5,-335.62 643,-325.62 639.5,-335.62 646.5,-335.62"/>
</g>
<!-- jz&#45;&gt;vk -->
<g id="edge38" class="edge">
<title>jz&#45;&gt;vk</title>
<path fill="none" stroke="black" d="M1216.64,-576.05C1214.73,-568.6 1212.42,-559.64 1210.26,-551.22"/>
<polygon fill="black" stroke="black" points="1213.7,-550.55 1207.82,-541.74 1206.92,-552.3 1213.7,-550.55"/>
</g>
<!-- vk&#45;&gt;qc -->
<g id="edge49" class="edge">
<title>vk&#45;&gt;qc</title>
<path fill="none" stroke="black" d="M1203,-503.7C1203,-496.41 1203,-487.73 1203,-479.54"/>
<polygon fill="black" stroke="black" points="1206.5,-479.62 1203,-469.62 1199.5,-479.62 1206.5,-479.62"/>
</g>
<!-- kl -->
<g id="node43" class="node">
<title>kl</title>
<ellipse fill="none" stroke="black" cx="607" cy="-234" rx="27" ry="18"/>
<text text-anchor="middle" x="607" y="-228.95" font-family="Times,serif" font-size="14.00">%kl</text>
</g>
<!-- kl&#45;&gt;mb -->
<g id="edge45" class="edge">
<title>kl&#45;&gt;mb</title>
<path fill="none" stroke="black" d="M607,-215.7C607,-208.41 607,-199.73 607,-191.54"/>
<polygon fill="black" stroke="black" points="610.5,-191.62 607,-181.62 603.5,-191.62 610.5,-191.62"/>
</g>
<!-- kl&#45;&gt;rd -->
<g id="edge44" class="edge">
<title>kl&#45;&gt;rd</title>
<path fill="none" stroke="black" d="M592.89,-249.81C571.17,-274.23 532,-325.42 532,-377 532,-451 532,-451 532,-451 532,-524.38 577.87,-601.44 604.48,-639.96"/>
<polygon fill="black" stroke="black" points="601.6,-641.95 610.23,-648.1 607.32,-637.91 601.6,-641.95"/>
</g>
<!-- rz&#45;&gt;kl -->
<g id="edge107" class="edge">
<title>rz&#45;&gt;kl</title>
<path fill="none" stroke="black" d="M634.65,-288.76C630.42,-280.55 625.19,-270.37 620.42,-261.09"/>
<polygon fill="black" stroke="black" points="623.68,-259.79 616,-252.49 617.46,-262.99 623.68,-259.79"/>
</g>
<!-- zm -->
<g id="node46" class="node">
<title>zm</title>
<ellipse fill="none" stroke="black" cx="1800" cy="-450" rx="30.88" ry="18"/>
<text text-anchor="middle" x="1800" y="-444.95" font-family="Times,serif" font-size="14.00">%zm</text>
</g>
<!-- bh&#45;&gt;zm -->
<g id="edge50" class="edge">
<title>bh&#45;&gt;zm</title>
<path fill="none" stroke="black" d="M1771.77,-504.41C1776.01,-496.39 1781.2,-486.57 1785.97,-477.54"/>
<polygon fill="black" stroke="black" points="1789.01,-479.28 1790.59,-468.81 1782.82,-476.01 1789.01,-479.28"/>
</g>
<!-- zm&#45;&gt;cs -->
<g id="edge103" class="edge">
<title>zm&#45;&gt;cs</title>
<path fill="none" stroke="black" d="M1807.51,-467.66C1818.58,-493.8 1838,-546.3 1838,-593 1838,-667 1838,-667 1838,-667 1838,-725.65 1776.87,-770.44 1738.13,-792.93"/>
<polygon fill="black" stroke="black" points="1736.67,-789.73 1729.66,-797.68 1740.09,-795.84 1736.67,-789.73"/>
</g>
<!-- jb -->
<g id="node56" class="node">
<title>jb</title>
<ellipse fill="none" stroke="black" cx="1800" cy="-378" rx="27" ry="18"/>
<text text-anchor="middle" x="1800" y="-372.95" font-family="Times,serif" font-size="14.00">%jb</text>
</g>
<!-- zm&#45;&gt;jb -->
<g id="edge104" class="edge">
<title>zm&#45;&gt;jb</title>
<path fill="none" stroke="black" d="M1800,-431.7C1800,-424.41 1800,-415.73 1800,-407.54"/>
<polygon fill="black" stroke="black" points="1803.5,-407.62 1800,-397.62 1796.5,-407.62 1803.5,-407.62"/>
</g>
<!-- nd&#45;&gt;qs -->
<g id="edge86" class="edge">
<title>nd&#45;&gt;qs</title>
<path fill="none" stroke="black" d="M998.47,-35.84C990.31,-62.21 976,-115.02 976,-161 976,-667 976,-667 976,-667 976,-713.27 995.38,-725.31 1030,-756 1053.44,-776.78 1086.39,-790.72 1111.35,-799.06"/>
<polygon fill="black" stroke="black" points="1110.16,-802.35 1120.75,-802.05 1112.28,-795.68 1110.16,-802.35"/>
</g>
<!-- dl&#45;&gt;rs -->
<g id="edge61" class="edge">
<title>dl&#45;&gt;rs</title>
<path fill="none" stroke="black" d="M914.47,-648.18C907.16,-629.96 894.55,-600.25 881,-576 875.64,-566.4 869.05,-556.32 862.99,-547.55"/>
<polygon fill="black" stroke="black" points="865.96,-545.69 857.32,-539.55 860.24,-549.73 865.96,-545.69"/>
</g>
<!-- lf&#45;&gt;rd -->
<g id="edge63" class="edge">
<title>lf&#45;&gt;rd</title>
<path fill="none" stroke="black" d="M640.35,-864.21C632.9,-827.74 623.26,-740.96 621.3,-695.65"/>
<polygon fill="black" stroke="black" points="624.81,-695.71 621.01,-685.82 617.81,-695.92 624.81,-695.71"/>
</g>
<!-- lf&#45;&gt;rh -->
<g id="edge62" class="edge">
<title>lf&#45;&gt;rh</title>
<path fill="none" stroke="black" d="M632.43,-866.15C623.94,-856.87 612.83,-844.73 603.2,-834.19"/>
<polygon fill="black" stroke="black" points="605.91,-831.96 596.57,-826.94 600.74,-836.68 605.91,-831.96"/>
</g>
<!-- fr&#45;&gt;rs -->
<g id="edge64" class="edge">
<title>fr&#45;&gt;rs</title>
<path fill="none" stroke="black" d="M787.92,-578.5C797.77,-568.92 810.86,-556.19 822.03,-545.34"/>
<polygon fill="black" stroke="black" points="824.29,-548.02 829.02,-538.54 819.41,-543 824.29,-548.02"/>
</g>
<!-- hf&#45;&gt;qs -->
<g id="edge67" class="edge">
<title>hf&#45;&gt;qs</title>
<path fill="none" stroke="black" d="M1103.64,-323.97C1098.69,-350.52 1090,-403.56 1090,-449 1090,-667 1090,-667 1090,-667 1090,-710.34 1113.15,-756.12 1129.95,-783.62"/>
<polygon fill="black" stroke="black" points="1126.9,-785.35 1135.2,-791.94 1132.82,-781.62 1126.9,-785.35"/>
</g>
<!-- hf&#45;&gt;xq -->
<g id="edge68" class="edge">
<title>hf&#45;&gt;xq</title>
<path fill="none" stroke="black" d="M1102.64,-288.05C1100.73,-280.6 1098.42,-271.64 1096.26,-263.22"/>
<polygon fill="black" stroke="black" points="1099.7,-262.55 1093.82,-253.74 1092.92,-264.3 1099.7,-262.55"/>
</g>
<!-- cj -->
<g id="node52" class="node">
<title>cj</title>
<ellipse fill="none" stroke="black" cx="1667" cy="-306" rx="27" ry="18"/>
<text text-anchor="middle" x="1667" y="-300.95" font-family="Times,serif" font-size="14.00">%cj</text>
</g>
<!-- cj&#45;&gt;cs -->
<g id="edge78" class="edge">
<title>cj&#45;&gt;cs</title>
<path fill="none" stroke="black" d="M1663.64,-323.97C1658.69,-350.52 1650,-403.56 1650,-449 1650,-667 1650,-667 1650,-667 1650,-710.34 1673.15,-756.12 1689.95,-783.62"/>
<polygon fill="black" stroke="black" points="1686.9,-785.35 1695.2,-791.94 1692.82,-781.62 1686.9,-785.35"/>
</g>
<!-- cj&#45;&gt;ss -->
<g id="edge77" class="edge">
<title>cj&#45;&gt;ss</title>
<path fill="none" stroke="black" d="M1662.4,-288.05C1660.35,-280.49 1657.87,-271.37 1655.56,-262.85"/>
<polygon fill="black" stroke="black" points="1658.95,-261.98 1652.95,-253.25 1652.2,-263.82 1658.95,-261.98"/>
</g>
<!-- zs -->
<g id="node55" class="node">
<title>zs</title>
<ellipse fill="none" stroke="black" cx="1648" cy="-162" rx="27" ry="18"/>
<text text-anchor="middle" x="1648" y="-156.95" font-family="Times,serif" font-size="14.00">%zs</text>
</g>
<!-- ss&#45;&gt;zs -->
<g id="edge92" class="edge">
<title>ss&#45;&gt;zs</title>
<path fill="none" stroke="black" d="M1648,-215.7C1648,-208.41 1648,-199.73 1648,-191.54"/>
<polygon fill="black" stroke="black" points="1651.5,-191.62 1648,-181.62 1644.5,-191.62 1651.5,-191.62"/>
</g>
<!-- bp&#45;&gt;cs -->
<g id="edge90" class="edge">
<title>bp&#45;&gt;cs</title>
<path fill="none" stroke="black" d="M1701.12,-864.05C1700.33,-856.57 1700.08,-847.58 1700.37,-839.14"/>
<polygon fill="black" stroke="black" points="1703.85,-839.51 1701.04,-829.3 1696.87,-839.04 1703.85,-839.51"/>
</g>
<!-- bp&#45;&gt;lx -->
<g id="edge91" class="edge">
<title>bp&#45;&gt;lx</title>
<path fill="none" stroke="black" d="M1726.49,-868.65C1766.07,-843.55 1856.04,-786.52 1902.32,-757.18"/>
<polygon fill="black" stroke="black" points="1904.18,-760.14 1910.76,-751.83 1900.44,-754.23 1904.18,-760.14"/>
</g>
<!-- zs&#45;&gt;cs -->
<g id="edge83" class="edge">
<title>zs&#45;&gt;cs</title>
<path fill="none" stroke="black" d="M1675.37,-162.17C1755.84,-161.3 1986,-170.54 1986,-305 1986,-667 1986,-667 1986,-667 1986,-707.45 1995.73,-727.53 1967,-756 1936.12,-786.6 1809.43,-800.89 1745,-806.28"/>
<polygon fill="black" stroke="black" points="1744.93,-802.78 1735.24,-807.07 1745.49,-809.76 1744.93,-802.78"/>
</g>
<!-- zs&#45;&gt;mn -->
<g id="edge84" class="edge">
<title>zs&#45;&gt;mn</title>
<path fill="none" stroke="black" d="M1636.24,-145.46C1629.67,-136.8 1621.34,-125.79 1613.89,-115.95"/>
<polygon fill="black" stroke="black" points="1616.84,-114.04 1608.01,-108.18 1611.26,-118.27 1616.84,-114.04"/>
</g>
<!-- jb&#45;&gt;cs -->
<g id="edge88" class="edge">
<title>jb&#45;&gt;cs</title>
<path fill="none" stroke="black" d="M1814.3,-393.77C1836.31,-418.15 1876,-469.27 1876,-521 1876,-667 1876,-667 1876,-667 1876,-736.47 1791.25,-778.76 1741.78,-797.53"/>
<polygon fill="black" stroke="black" points="1740.83,-794.15 1732.64,-800.86 1743.23,-800.72 1740.83,-794.15"/>
</g>
<!-- jb&#45;&gt;cj -->
<g id="edge87" class="edge">
<title>jb&#45;&gt;cj</title>
<path fill="none" stroke="black" d="M1779.22,-366.06C1757.36,-354.56 1722.71,-336.32 1697.7,-323.16"/>
<polygon fill="black" stroke="black" points="1699.45,-320.13 1688.97,-318.57 1696.19,-326.32 1699.45,-320.13"/>
</g>
<!-- rv&#45;&gt;rs -->
<g id="edge89" class="edge">
<title>rv&#45;&gt;rs</title>
<path fill="none" stroke="black" d="M1466.83,-722.79C1433.57,-690.42 1346.55,-611.31 1257,-576 1189.33,-549.32 972.48,-531.78 883.58,-525.54"/>
<polygon fill="black" stroke="black" points="883.88,-522.05 873.66,-524.85 883.4,-529.03 883.88,-522.05"/>
</g>
<!-- lx&#45;&gt;gk -->
<g id="edge93" class="edge">
<title>lx&#45;&gt;gk</title>
<path fill="none" stroke="black" d="M1909.33,-726.82C1884.43,-715.12 1843.29,-695.79 1814.53,-682.28"/>
<polygon fill="black" stroke="black" points="1816.09,-679.15 1805.55,-678.06 1813.11,-685.48 1816.09,-679.15"/>
</g>
<!-- mf&#45;&gt;mj -->
<g id="edge101" class="edge">
<title>mf&#45;&gt;mj</title>
<path fill="none" stroke="black" d="M106.49,-323.66C95.42,-349.8 76,-402.3 76,-449 76,-595 76,-595 76,-595 76,-640.59 94.17,-652.37 127,-684 145.7,-702.02 171.75,-715.49 192.7,-724.33"/>
<polygon fill="black" stroke="black" points="191.15,-727.48 201.73,-727.97 193.76,-720.99 191.15,-727.48"/>
</g>
<!-- mf&#45;&gt;hz -->
<g id="edge102" class="edge">
<title>mf&#45;&gt;hz</title>
<path fill="none" stroke="black" d="M114,-287.7C114,-280.41 114,-271.73 114,-263.54"/>
<polygon fill="black" stroke="black" points="117.5,-263.62 114,-253.62 110.5,-263.62 117.5,-263.62"/>
</g>
</g>
</svg>
