<?xml version="1.0" encoding="UTF-8" standalone="no"?>
<!DOCTYPE svg PUBLIC "-//W3C//DTD SVG 1.1//EN"
 "http://www.w3.org/Graphics/SVG/1.1/DTD/svg11.dtd">
<!-- Generated by graphviz version 9.0.0 (0)
 -->
<!-- Pages: 1 -->
<svg width="767pt" height="486pt"
 viewBox="0.00 0.00 767.34 486.33" xmlns="http://www.w3.org/2000/svg" xmlns:xlink="http://www.w3.org/1999/xlink">
<g id="graph0" class="graph" transform="scale(1 1) rotate(0) translate(4 482.33)">
<polygon fill="white" stroke="none" points="-4,4 -4,-482.33 763.34,-482.33 763.34,4 -4,4"/>
<!-- jqt -->
<g id="node1" class="node">
<title>jqt</title>
<ellipse fill="none" stroke="black" cx="27" cy="-368.99" rx="27" ry="18"/>
<text text-anchor="middle" x="27" y="-363.94" font-family="Times,serif" font-size="14.00">jqt</text>
</g>
<!-- rhn -->
<g id="node2" class="node">
<title>rhn</title>
<ellipse fill="none" stroke="black" cx="167.18" cy="-373.49" rx="27" ry="18"/>
<text text-anchor="middle" x="167.18" y="-368.44" font-family="Times,serif" font-size="14.00">rhn</text>
</g>
<!-- jqt&#45;&gt;rhn -->
<g id="edge1" class="edge">
<title>jqt&#45;&gt;rhn</title>
<path fill="none" stroke="black" d="M52.86,-375.21C74.32,-377.45 105.11,-378.67 129.33,-378.34"/>
<polygon fill="black" stroke="black" points="129.21,-381.84 139.12,-378.09 129.03,-374.84 129.21,-381.84"/>
</g>
<!-- xhk -->
<g id="node3" class="node">
<title>xhk</title>
<ellipse fill="none" stroke="black" cx="163.08" cy="-292.4" rx="27" ry="18"/>
<text text-anchor="middle" x="163.08" y="-287.35" font-family="Times,serif" font-size="14.00">xhk</text>
</g>
<!-- jqt&#45;&gt;xhk -->
<g id="edge2" class="edge">
<title>jqt&#45;&gt;xhk</title>
<path fill="none" stroke="black" d="M51.69,-360.99C75.96,-349.6 112.77,-329.07 137.38,-313.31"/>
<polygon fill="black" stroke="black" points="139.1,-316.36 145.53,-307.93 135.25,-310.52 139.1,-316.36"/>
</g>
<!-- ntq -->
<g id="node4" class="node">
<title>ntq</title>
<ellipse fill="none" stroke="black" cx="163.81" cy="-441.61" rx="27" ry="18"/>
<text text-anchor="middle" x="163.81" y="-436.56" font-family="Times,serif" font-size="14.00">ntq</text>
</g>
<!-- jqt&#45;&gt;ntq -->
<g id="edge3" class="edge">
<title>jqt&#45;&gt;ntq</title>
<path fill="none" stroke="black" d="M43.75,-383.37C64.78,-396.96 101.31,-416.73 128.58,-429.53"/>
<polygon fill="black" stroke="black" points="126.97,-432.64 137.52,-433.6 129.87,-426.27 126.97,-432.64"/>
</g>
<!-- rhn&#45;&gt;jqt -->
<g id="edge4" class="edge">
<title>rhn&#45;&gt;jqt</title>
<path fill="none" stroke="black" d="M141.31,-367.27C119.86,-365.02 89.06,-363.81 64.84,-364.14"/>
<polygon fill="black" stroke="black" points="64.97,-360.64 55.06,-364.39 65.15,-367.63 64.97,-360.64"/>
</g>
<!-- rhn&#45;&gt;xhk -->
<g id="edge5" class="edge">
<title>rhn&#45;&gt;xhk</title>
<path fill="none" stroke="black" d="M171.96,-355.61C172.5,-345.6 172.14,-332.88 171.08,-321.47"/>
<polygon fill="black" stroke="black" points="174.57,-321.25 169.9,-311.74 167.62,-322.08 174.57,-321.25"/>
</g>
<!-- bvb -->
<g id="node5" class="node">
<title>bvb</title>
<ellipse fill="none" stroke="black" cx="265.57" cy="-460.33" rx="27" ry="18"/>
<text text-anchor="middle" x="265.57" y="-455.28" font-family="Times,serif" font-size="14.00">bvb</text>
</g>
<!-- rhn&#45;&gt;bvb -->
<g id="edge6" class="edge">
<title>rhn&#45;&gt;bvb</title>
<path fill="none" stroke="black" d="M178.41,-390.02C192.29,-404.86 216.14,-426.4 235.44,-441.8"/>
<polygon fill="black" stroke="black" points="233.23,-444.52 243.28,-447.88 237.52,-438.98 233.23,-444.52"/>
</g>
<!-- hfx -->
<g id="node6" class="node">
<title>hfx</title>
<ellipse fill="none" stroke="black" cx="302.61" cy="-330.92" rx="27" ry="18"/>
<text text-anchor="middle" x="302.61" y="-325.87" font-family="Times,serif" font-size="14.00">hfx</text>
</g>
<!-- rhn&#45;&gt;hfx -->
<g id="edge7" class="edge">
<title>rhn&#45;&gt;hfx</title>
<path fill="none" stroke="black" d="M194.27,-370.64C216.48,-365.34 247.93,-355.63 271.23,-346.96"/>
<polygon fill="black" stroke="black" points="272.46,-350.24 280.53,-343.36 269.94,-343.71 272.46,-350.24"/>
</g>
<!-- xhk&#45;&gt;jqt -->
<g id="edge8" class="edge">
<title>xhk&#45;&gt;jqt</title>
<path fill="none" stroke="black" d="M138.39,-300.4C114.12,-311.79 77.31,-332.33 52.7,-348.09"/>
<polygon fill="black" stroke="black" points="50.98,-345.03 44.55,-353.46 54.83,-350.88 50.98,-345.03"/>
</g>
<!-- xhk&#45;&gt;rhn -->
<g id="edge10" class="edge">
<title>xhk&#45;&gt;rhn</title>
<path fill="none" stroke="black" d="M158.3,-310.28C157.76,-320.29 158.12,-333.02 159.18,-344.42"/>
<polygon fill="black" stroke="black" points="155.68,-344.64 160.35,-354.15 162.63,-343.81 155.68,-344.64"/>
</g>
<!-- xhk&#45;&gt;ntq -->
<g id="edge12" class="edge">
<title>xhk&#45;&gt;ntq</title>
<path fill="none" stroke="black" d="M158.58,-310.42C156.16,-335.75 156.09,-382.17 158.18,-412.45"/>
<polygon fill="black" stroke="black" points="154.66,-412.4 159,-422.06 161.64,-411.8 154.66,-412.4"/>
</g>
<!-- xhk&#45;&gt;bvb -->
<g id="edge11" class="edge">
<title>xhk&#45;&gt;bvb</title>
<path fill="none" stroke="black" d="M169.18,-310.36C183.96,-340.51 220.57,-401.15 244.31,-435.4"/>
<polygon fill="black" stroke="black" points="241.4,-437.35 250.05,-443.48 247.11,-433.3 241.4,-437.35"/>
</g>
<!-- xhk&#45;&gt;hfx -->
<g id="edge9" class="edge">
<title>xhk&#45;&gt;hfx</title>
<path fill="none" stroke="black" d="M184.75,-303.74C206.02,-311.46 238.91,-320.83 264.55,-326.65"/>
<polygon fill="black" stroke="black" points="263.76,-330.06 274.27,-328.74 265.23,-323.21 263.76,-330.06"/>
</g>
<!-- ntq&#45;&gt;jqt -->
<g id="edge55" class="edge">
<title>ntq&#45;&gt;jqt</title>
<path fill="none" stroke="black" d="M147.06,-427.23C126.03,-413.64 89.5,-393.88 62.23,-381.07"/>
<polygon fill="black" stroke="black" points="63.84,-377.96 53.29,-377 60.94,-384.33 63.84,-377.96"/>
</g>
<!-- ntq&#45;&gt;xhk -->
<g id="edge58" class="edge">
<title>ntq&#45;&gt;xhk</title>
<path fill="none" stroke="black" d="M168.3,-423.59C170.73,-398.26 170.8,-351.84 168.71,-321.56"/>
<polygon fill="black" stroke="black" points="172.23,-321.62 167.89,-311.95 165.25,-322.21 172.23,-321.62"/>
</g>
<!-- ntq&#45;&gt;bvb -->
<g id="edge57" class="edge">
<title>ntq&#45;&gt;bvb</title>
<path fill="none" stroke="black" d="M186.61,-451.73C198.56,-454.86 213.51,-457.85 227.19,-459.91"/>
<polygon fill="black" stroke="black" points="226.4,-463.33 236.77,-461.2 227.33,-456.4 226.4,-463.33"/>
</g>
<!-- ntq&#45;&gt;hfx -->
<g id="edge56" class="edge">
<title>ntq&#45;&gt;hfx</title>
<path fill="none" stroke="black" d="M185.51,-430.43C211.65,-412.69 255.1,-378.26 281.13,-354.84"/>
<polygon fill="black" stroke="black" points="283.47,-357.45 288.45,-348.09 278.72,-352.3 283.47,-357.45"/>
</g>
<!-- bvb&#45;&gt;rhn -->
<g id="edge51" class="edge">
<title>bvb&#45;&gt;rhn</title>
<path fill="none" stroke="black" d="M254.33,-443.8C240.46,-428.96 216.6,-407.42 197.31,-392.02"/>
<polygon fill="black" stroke="black" points="199.51,-389.3 189.46,-385.94 195.22,-394.83 199.51,-389.3"/>
</g>
<!-- bvb&#45;&gt;xhk -->
<g id="edge52" class="edge">
<title>bvb&#45;&gt;xhk</title>
<path fill="none" stroke="black" d="M259.46,-442.37C244.69,-412.23 208.08,-351.59 184.34,-317.34"/>
<polygon fill="black" stroke="black" points="187.25,-315.38 178.6,-309.26 181.54,-319.44 187.25,-315.38"/>
</g>
<!-- bvb&#45;&gt;ntq -->
<g id="edge54" class="edge">
<title>bvb&#45;&gt;ntq</title>
<path fill="none" stroke="black" d="M242.76,-450.22C230.81,-447.08 215.86,-444.09 202.19,-442.03"/>
<polygon fill="black" stroke="black" points="202.98,-438.61 192.6,-440.75 202.04,-445.55 202.98,-438.61"/>
</g>
<!-- bvb&#45;&gt;hfx -->
<g id="edge53" class="edge">
<title>bvb&#45;&gt;hfx</title>
<path fill="none" stroke="black" d="M275.59,-443.14C283.9,-422.02 294.51,-385.88 300.08,-360.32"/>
<polygon fill="black" stroke="black" points="303.51,-361.05 302.03,-350.56 296.64,-359.68 303.51,-361.05"/>
</g>
<!-- hfx&#45;&gt;rhn -->
<g id="edge35" class="edge">
<title>hfx&#45;&gt;rhn</title>
<path fill="none" stroke="black" d="M275.52,-333.76C253.3,-339.06 221.86,-348.77 198.56,-357.44"/>
<polygon fill="black" stroke="black" points="197.32,-354.17 189.26,-361.04 199.85,-360.69 197.32,-354.17"/>
</g>
<!-- hfx&#45;&gt;xhk -->
<g id="edge34" class="edge">
<title>hfx&#45;&gt;xhk</title>
<path fill="none" stroke="black" d="M280.95,-319.58C259.67,-311.86 226.79,-302.49 201.15,-296.67"/>
<polygon fill="black" stroke="black" points="201.94,-293.26 191.43,-294.58 200.47,-300.11 201.94,-293.26"/>
</g>
<!-- hfx&#45;&gt;ntq -->
<g id="edge38" class="edge">
<title>hfx&#45;&gt;ntq</title>
<path fill="none" stroke="black" d="M280.91,-342.1C254.77,-359.84 211.32,-394.27 185.29,-417.69"/>
<polygon fill="black" stroke="black" points="182.95,-415.08 177.97,-424.44 187.7,-420.23 182.95,-415.08"/>
</g>
<!-- hfx&#45;&gt;bvb -->
<g id="edge36" class="edge">
<title>hfx&#45;&gt;bvb</title>
<path fill="none" stroke="black" d="M292.59,-348.11C284.28,-369.23 273.67,-405.36 268.09,-430.92"/>
<polygon fill="black" stroke="black" points="264.67,-430.19 266.15,-440.69 271.54,-431.56 264.67,-430.19"/>
</g>
<!-- pzl -->
<g id="node9" class="node">
<title>pzl</title>
<ellipse fill="none" stroke="black" cx="444.74" cy="-258.68" rx="27" ry="18"/>
<text text-anchor="middle" x="444.74" y="-253.63" font-family="Times,serif" font-size="14.00">pzl</text>
</g>
<!-- hfx&#45;&gt;pzl -->
<g id="edge37" class="edge">
<title>hfx&#45;&gt;pzl</title>
<path fill="none" stroke="black" d="M327.77,-323.87C353.06,-313.26 391.86,-293.72 417.78,-278.66"/>
<polygon fill="black" stroke="black" points="419.27,-281.85 426.05,-273.71 415.68,-275.84 419.27,-281.85"/>
</g>
<!-- nvd -->
<g id="node7" class="node">
<title>nvd</title>
<ellipse fill="none" stroke="black" cx="500.7" cy="-91.23" rx="27" ry="18"/>
<text text-anchor="middle" x="500.7" y="-86.18" font-family="Times,serif" font-size="14.00">nvd</text>
</g>
<!-- cmg -->
<g id="node8" class="node">
<title>cmg</title>
<ellipse fill="none" stroke="black" cx="611.99" cy="-18" rx="27.3" ry="18"/>
<text text-anchor="middle" x="611.99" y="-12.95" font-family="Times,serif" font-size="14.00">cmg</text>
</g>
<!-- nvd&#45;&gt;cmg -->
<g id="edge13" class="edge">
<title>nvd&#45;&gt;cmg</title>
<path fill="none" stroke="black" d="M524.33,-82.13C543.22,-71.66 569.49,-54.57 588.37,-40.57"/>
<polygon fill="black" stroke="black" points="590.48,-43.36 596.29,-34.51 586.22,-37.81 590.48,-43.36"/>
</g>
<!-- nvd&#45;&gt;pzl -->
<g id="edge14" class="edge">
<title>nvd&#45;&gt;pzl</title>
<path fill="none" stroke="black" d="M490.43,-108.07C477.93,-136.49 458.37,-194.21 449.09,-229.38"/>
<polygon fill="black" stroke="black" points="445.74,-228.34 446.72,-238.89 452.53,-230.03 445.74,-228.34"/>
</g>
<!-- qnr -->
<g id="node10" class="node">
<title>qnr</title>
<ellipse fill="none" stroke="black" cx="701.71" cy="-72.73" rx="27" ry="18"/>
<text text-anchor="middle" x="701.71" y="-67.68" font-family="Times,serif" font-size="14.00">qnr</text>
</g>
<!-- nvd&#45;&gt;qnr -->
<g id="edge15" class="edge">
<title>nvd&#45;&gt;qnr</title>
<path fill="none" stroke="black" d="M527.83,-93.51C563.26,-92.69 625.42,-87.18 665.03,-81.51"/>
<polygon fill="black" stroke="black" points="665.44,-84.99 674.8,-80.02 664.39,-78.07 665.44,-84.99"/>
</g>
<!-- lhk -->
<g id="node11" class="node">
<title>lhk</title>
<ellipse fill="none" stroke="black" cx="617.72" cy="-154.78" rx="27" ry="18"/>
<text text-anchor="middle" x="617.72" y="-149.73" font-family="Times,serif" font-size="14.00">lhk</text>
</g>
<!-- nvd&#45;&gt;lhk -->
<g id="edge16" class="edge">
<title>nvd&#45;&gt;lhk</title>
<path fill="none" stroke="black" d="M517.06,-105.93C533.98,-117.14 560.84,-132.1 582.57,-142.64"/>
<polygon fill="black" stroke="black" points="580.86,-145.7 591.4,-146.78 583.83,-139.36 580.86,-145.7"/>
</g>
<!-- cmg&#45;&gt;nvd -->
<g id="edge40" class="edge">
<title>cmg&#45;&gt;nvd</title>
<path fill="none" stroke="black" d="M588.09,-27.25C569.18,-37.76 543,-54.8 524.2,-68.75"/>
<polygon fill="black" stroke="black" points="522.13,-65.92 516.32,-74.79 526.39,-71.48 522.13,-65.92"/>
</g>
<!-- cmg&#45;&gt;qnr -->
<g id="edge39" class="edge">
<title>cmg&#45;&gt;qnr</title>
<path fill="none" stroke="black" d="M626.85,-33.51C637.88,-41.68 653.31,-51.47 667.31,-59.31"/>
<polygon fill="black" stroke="black" points="665.38,-62.24 675.84,-63.91 668.7,-56.08 665.38,-62.24"/>
</g>
<!-- cmg&#45;&gt;lhk -->
<g id="edge41" class="edge">
<title>cmg&#45;&gt;lhk</title>
<path fill="none" stroke="black" d="M608.02,-36.08C606.63,-59.01 607.99,-98.83 610.87,-125.97"/>
<polygon fill="black" stroke="black" points="607.36,-126.09 612.06,-135.59 614.31,-125.24 607.36,-126.09"/>
</g>
<!-- rzs -->
<g id="node15" class="node">
<title>rzs</title>
<ellipse fill="none" stroke="black" cx="708.69" cy="-180.73" rx="27" ry="18"/>
<text text-anchor="middle" x="708.69" y="-175.68" font-family="Times,serif" font-size="14.00">rzs</text>
</g>
<!-- cmg&#45;&gt;rzs -->
<g id="edge42" class="edge">
<title>cmg&#45;&gt;rzs</title>
<path fill="none" stroke="black" d="M617.82,-36.05C631.68,-65.27 665.49,-122.82 687.86,-155.88"/>
<polygon fill="black" stroke="black" points="684.96,-157.84 693.54,-164.05 690.71,-153.84 684.96,-157.84"/>
</g>
<!-- pzl&#45;&gt;hfx -->
<g id="edge27" class="edge">
<title>pzl&#45;&gt;hfx</title>
<path fill="none" stroke="black" d="M419.59,-265.73C394.3,-276.33 355.49,-295.87 329.58,-310.93"/>
<polygon fill="black" stroke="black" points="328.08,-307.75 321.3,-315.89 331.68,-313.76 328.08,-307.75"/>
</g>
<!-- pzl&#45;&gt;nvd -->
<g id="edge28" class="edge">
<title>pzl&#45;&gt;nvd</title>
<path fill="none" stroke="black" d="M455.01,-241.83C467.51,-213.42 487.07,-155.69 496.35,-120.53"/>
<polygon fill="black" stroke="black" points="499.7,-121.56 498.72,-111.02 492.91,-119.88 499.7,-121.56"/>
</g>
<!-- rsh -->
<g id="node12" class="node">
<title>rsh</title>
<ellipse fill="none" stroke="black" cx="572.1" cy="-278.73" rx="27" ry="18"/>
<text text-anchor="middle" x="572.1" y="-273.68" font-family="Times,serif" font-size="14.00">rsh</text>
</g>
<!-- pzl&#45;&gt;rsh -->
<g id="edge25" class="edge">
<title>pzl&#45;&gt;rsh</title>
<path fill="none" stroke="black" d="M468.45,-267.94C486.77,-272.26 512.49,-276.56 533.73,-278.98"/>
<polygon fill="black" stroke="black" points="533.19,-282.44 543.49,-279.96 533.89,-275.48 533.19,-282.44"/>
</g>
<!-- lsr -->
<g id="node14" class="node">
<title>lsr</title>
<ellipse fill="none" stroke="black" cx="621.46" cy="-325.76" rx="27" ry="18"/>
<text text-anchor="middle" x="621.46" y="-320.71" font-family="Times,serif" font-size="14.00">lsr</text>
</g>
<!-- pzl&#45;&gt;lsr -->
<g id="edge26" class="edge">
<title>pzl&#45;&gt;lsr</title>
<path fill="none" stroke="black" d="M464.77,-271.22C493.79,-284.91 547.95,-305.79 584.37,-317.58"/>
<polygon fill="black" stroke="black" points="583.02,-320.82 593.61,-320.47 585.11,-314.14 583.02,-320.82"/>
</g>
<!-- qnr&#45;&gt;nvd -->
<g id="edge44" class="edge">
<title>qnr&#45;&gt;nvd</title>
<path fill="none" stroke="black" d="M674.58,-70.45C639.15,-71.27 576.99,-76.78 537.38,-82.45"/>
<polygon fill="black" stroke="black" points="536.97,-78.97 527.61,-83.94 538.02,-85.89 536.97,-78.97"/>
</g>
<!-- qnr&#45;&gt;cmg -->
<g id="edge43" class="edge">
<title>qnr&#45;&gt;cmg</title>
<path fill="none" stroke="black" d="M686.85,-57.22C675.83,-49.05 660.4,-39.26 646.39,-31.42"/>
<polygon fill="black" stroke="black" points="648.33,-28.49 637.86,-26.82 645.01,-34.65 648.33,-28.49"/>
</g>
<!-- frs -->
<g id="node13" class="node">
<title>frs</title>
<ellipse fill="none" stroke="black" cx="732.34" cy="-257.41" rx="27" ry="18"/>
<text text-anchor="middle" x="732.34" y="-252.36" font-family="Times,serif" font-size="14.00">frs</text>
</g>
<!-- qnr&#45;&gt;frs -->
<g id="edge46" class="edge">
<title>qnr&#45;&gt;frs</title>
<path fill="none" stroke="black" d="M700.53,-91.12C702.74,-123.3 713.49,-190.03 722.34,-228.45"/>
<polygon fill="black" stroke="black" points="718.94,-229.28 724.72,-238.16 725.74,-227.61 718.94,-229.28"/>
</g>
<!-- qnr&#45;&gt;rzs -->
<g id="edge45" class="edge">
<title>qnr&#45;&gt;rzs</title>
<path fill="none" stroke="black" d="M697.71,-90.9C697.04,-107.48 698.33,-132.28 700.71,-151.63"/>
<polygon fill="black" stroke="black" points="697.22,-151.95 702.1,-161.35 704.15,-150.95 697.22,-151.95"/>
</g>
<!-- lhk&#45;&gt;nvd -->
<g id="edge48" class="edge">
<title>lhk&#45;&gt;nvd</title>
<path fill="none" stroke="black" d="M601.36,-140.07C584.44,-128.87 557.58,-113.9 535.84,-103.37"/>
<polygon fill="black" stroke="black" points="537.56,-100.31 527.02,-99.23 534.59,-106.65 537.56,-100.31"/>
</g>
<!-- lhk&#45;&gt;cmg -->
<g id="edge47" class="edge">
<title>lhk&#45;&gt;cmg</title>
<path fill="none" stroke="black" d="M621.7,-136.7C623.08,-113.89 621.74,-74.39 618.89,-47.26"/>
<polygon fill="black" stroke="black" points="622.4,-47.13 617.72,-37.63 615.45,-47.98 622.4,-47.13"/>
</g>
<!-- lhk&#45;&gt;frs -->
<g id="edge50" class="edge">
<title>lhk&#45;&gt;frs</title>
<path fill="none" stroke="black" d="M629.12,-171.26C646.25,-189.75 678.82,-219.39 702.86,-238.71"/>
<polygon fill="black" stroke="black" points="700.39,-241.22 710.42,-244.63 704.7,-235.71 700.39,-241.22"/>
</g>
<!-- lhk&#45;&gt;lsr -->
<g id="edge49" class="edge">
<title>lhk&#45;&gt;lsr</title>
<path fill="none" stroke="black" d="M613.78,-172.85C611.54,-202.34 612.53,-261.07 615.59,-296.54"/>
<polygon fill="black" stroke="black" points="612.06,-296.5 616.55,-306.1 619.03,-295.8 612.06,-296.5"/>
</g>
<!-- rsh&#45;&gt;pzl -->
<g id="edge18" class="edge">
<title>rsh&#45;&gt;pzl</title>
<path fill="none" stroke="black" d="M548.39,-269.47C530.07,-265.15 504.35,-260.85 483.11,-258.43"/>
<polygon fill="black" stroke="black" points="483.65,-254.97 473.35,-257.45 482.95,-261.93 483.65,-254.97"/>
</g>
<!-- rsh&#45;&gt;frs -->
<g id="edge17" class="edge">
<title>rsh&#45;&gt;frs</title>
<path fill="none" stroke="black" d="M599.24,-280.33C626.09,-278.67 667.33,-273.38 696.78,-267.95"/>
<polygon fill="black" stroke="black" points="697.2,-271.43 706.34,-266.08 695.86,-264.56 697.2,-271.43"/>
</g>
<!-- rsh&#45;&gt;lsr -->
<g id="edge19" class="edge">
<title>rsh&#45;&gt;lsr</title>
<path fill="none" stroke="black" d="M581.39,-295.99C584.46,-299.51 588.03,-303.21 591.75,-306.77"/>
<polygon fill="black" stroke="black" points="589.12,-309.11 598.89,-313.21 593.81,-303.91 589.12,-309.11"/>
</g>
<!-- rsh&#45;&gt;rzs -->
<g id="edge20" class="edge">
<title>rsh&#45;&gt;rzs</title>
<path fill="none" stroke="black" d="M594.83,-268.49C620.27,-253.02 661.08,-223.93 686.35,-203.4"/>
<polygon fill="black" stroke="black" points="688.31,-206.33 693.74,-197.23 683.82,-200.95 688.31,-206.33"/>
</g>
<!-- frs&#45;&gt;qnr -->
<g id="edge22" class="edge">
<title>frs&#45;&gt;qnr</title>
<path fill="none" stroke="black" d="M733.52,-239.01C731.31,-206.84 720.56,-140.11 711.71,-101.68"/>
<polygon fill="black" stroke="black" points="715.11,-100.86 709.33,-91.98 708.31,-102.52 715.11,-100.86"/>
</g>
<!-- frs&#45;&gt;lhk -->
<g id="edge23" class="edge">
<title>frs&#45;&gt;lhk</title>
<path fill="none" stroke="black" d="M720.94,-240.93C703.81,-222.44 671.24,-192.79 647.2,-173.47"/>
<polygon fill="black" stroke="black" points="649.67,-170.97 639.64,-167.55 645.35,-176.48 649.67,-170.97"/>
</g>
<!-- frs&#45;&gt;rsh -->
<g id="edge21" class="edge">
<title>frs&#45;&gt;rsh</title>
<path fill="none" stroke="black" d="M705.2,-255.81C678.34,-257.47 637.11,-262.76 607.65,-268.19"/>
<polygon fill="black" stroke="black" points="607.23,-264.71 598.09,-270.06 608.58,-271.58 607.23,-264.71"/>
</g>
<!-- frs&#45;&gt;lsr -->
<g id="edge24" class="edge">
<title>frs&#45;&gt;lsr</title>
<path fill="none" stroke="black" d="M708.1,-265.94C689.57,-275.53 664.21,-290.99 645.69,-303.88"/>
<polygon fill="black" stroke="black" points="643.75,-300.96 637.68,-309.64 647.84,-306.64 643.75,-300.96"/>
</g>
<!-- lsr&#45;&gt;pzl -->
<g id="edge30" class="edge">
<title>lsr&#45;&gt;pzl</title>
<path fill="none" stroke="black" d="M601.43,-313.22C572.42,-299.52 518.26,-278.65 481.84,-266.86"/>
<polygon fill="black" stroke="black" points="483.19,-263.61 472.6,-263.96 481.09,-270.29 483.19,-263.61"/>
</g>
<!-- lsr&#45;&gt;lhk -->
<g id="edge31" class="edge">
<title>lsr&#45;&gt;lhk</title>
<path fill="none" stroke="black" d="M625.41,-307.69C627.64,-278.2 626.66,-219.47 623.6,-184"/>
<polygon fill="black" stroke="black" points="627.12,-184.04 622.64,-174.44 620.16,-184.74 627.12,-184.04"/>
</g>
<!-- lsr&#45;&gt;rsh -->
<g id="edge29" class="edge">
<title>lsr&#45;&gt;rsh</title>
<path fill="none" stroke="black" d="M612.18,-308.5C609.1,-304.98 605.53,-301.28 601.81,-297.72"/>
<polygon fill="black" stroke="black" points="604.45,-295.38 594.68,-291.27 599.76,-300.57 604.45,-295.38"/>
</g>
<!-- lsr&#45;&gt;frs -->
<g id="edge33" class="edge">
<title>lsr&#45;&gt;frs</title>
<path fill="none" stroke="black" d="M645.71,-317.22C664.23,-307.63 689.59,-292.18 708.11,-279.29"/>
<polygon fill="black" stroke="black" points="710.05,-282.2 716.12,-273.52 705.96,-276.52 710.05,-282.2"/>
</g>
<!-- lsr&#45;&gt;rzs -->
<g id="edge32" class="edge">
<title>lsr&#45;&gt;rzs</title>
<path fill="none" stroke="black" d="M636.11,-310.35C653.73,-286.12 682.36,-238.94 698.04,-208.65"/>
<polygon fill="black" stroke="black" points="700.99,-210.57 702.33,-200.06 694.73,-207.44 700.99,-210.57"/>
</g>
<!-- rzs&#45;&gt;cmg -->
<g id="edge60" class="edge">
<title>rzs&#45;&gt;cmg</title>
<path fill="none" stroke="black" d="M702.86,-162.68C689,-133.46 655.19,-75.91 632.82,-42.85"/>
<polygon fill="black" stroke="black" points="635.72,-40.89 627.14,-34.68 629.98,-44.89 635.72,-40.89"/>
</g>
<!-- rzs&#45;&gt;qnr -->
<g id="edge59" class="edge">
<title>rzs&#45;&gt;qnr</title>
<path fill="none" stroke="black" d="M712.69,-162.56C713.36,-145.98 712.07,-121.18 709.7,-101.83"/>
<polygon fill="black" stroke="black" points="713.19,-101.52 708.3,-92.12 706.26,-102.51 713.19,-101.52"/>
</g>
<!-- rzs&#45;&gt;rsh -->
<g id="edge62" class="edge">
<title>rzs&#45;&gt;rsh</title>
<path fill="none" stroke="black" d="M685.96,-190.98C660.52,-206.44 619.7,-235.53 594.43,-256.07"/>
<polygon fill="black" stroke="black" points="592.48,-253.14 587.05,-262.23 596.97,-258.51 592.48,-253.14"/>
</g>
<!-- rzs&#45;&gt;lsr -->
<g id="edge61" class="edge">
<title>rzs&#45;&gt;lsr</title>
<path fill="none" stroke="black" d="M694.04,-196.14C676.42,-220.36 647.79,-267.54 632.11,-297.84"/>
<polygon fill="black" stroke="black" points="629.16,-295.92 627.83,-306.43 635.42,-299.04 629.16,-295.92"/>
</g>
</g>
</svg>
